<?xml version="1.0" encoding="UTF-8"?>
<!DOCTYPE svg PUBLIC "-//W3C//DTD SVG 1.1//EN" "http://www.w3.org/Graphics/SVG/1.1/DTD/svg11.dtd">
<svg xmlns="http://www.w3.org/2000/svg" version="1.1" width="612px" height="408px" style="shape-rendering:geometricPrecision; text-rendering:geometricPrecision; image-rendering:optimizeQuality; fill-rule:evenodd; clip-rule:evenodd" xmlns:xlink="http://www.w3.org/1999/xlink">
<g><path style="opacity:1" fill="#fefefe" d="M -0.5,-0.5 C 203.5,-0.5 407.5,-0.5 611.5,-0.5C 611.5,135.5 611.5,271.5 611.5,407.5C 407.5,407.5 203.5,407.5 -0.5,407.5C -0.5,271.5 -0.5,135.5 -0.5,-0.5 Z"/></g>
<g><path style="opacity:1" fill="#fef2e9" d="M 285.5,66.5 C 255.833,66.5 226.167,66.5 196.5,66.5C 196.5,67.8333 196.5,69.1667 196.5,70.5C 177.167,70.5 157.833,70.5 138.5,70.5C 138.5,124.167 138.5,177.833 138.5,231.5C 131.091,226.615 123.757,221.448 116.5,216C 113.081,214.825 109.747,213.825 106.5,213C 100.288,229.174 97.2879,246.008 97.5,263.5C 96.6733,258.349 96.1733,253.016 96,247.5C 95.8184,250.226 95.3184,252.893 94.5,255.5C 93.1667,253.167 91.8333,250.833 90.5,248.5C 89.675,247.614 88.675,247.281 87.5,247.5C 73.9123,217.029 68.9123,185.029 72.5,151.5C 75.0749,142.523 76.7416,133.19 77.5,123.5C 80.1026,117.329 82.2692,110.995 84,104.5C 85.0113,103.663 86.1779,103.33 87.5,103.5C 87.5,100.833 87.5,98.1667 87.5,95.5C 88.5,95.5 89.5,95.5 90.5,95.5C 90.2639,92.7743 91.0972,90.441 93,88.5C 95.4189,85.7182 97.9189,83.0516 100.5,80.5C 101.325,79.6143 102.325,79.281 103.5,79.5C 103.5,78.1667 103.5,76.8333 103.5,75.5C 106.5,75.8333 107.833,74.5 107.5,71.5C 108.833,71.5 110.167,71.5 111.5,71.5C 112.775,66.4008 116.108,63.5675 121.5,63C 123.657,61.0879 125.991,59.4213 128.5,58C 136.443,56.5994 144.109,54.4328 151.5,51.5C 160.816,50.3346 170.149,50.1679 179.5,51C 188.768,54.1392 198.102,56.9726 207.5,59.5C 207.5,61.5 207.5,63.5 207.5,65.5C 233.672,65.1689 259.672,65.5022 285.5,66.5 Z"/></g>
<g><path style="opacity:1" fill="#7c868e" d="M 285.5,66.5 C 285.5,67.8333 285.5,69.1667 285.5,70.5C 285.5,70.8333 285.5,71.1667 285.5,71.5C 285.226,76.263 285.559,80.9296 286.5,85.5C 285.539,87.2646 285.205,89.2646 285.5,91.5C 279.5,91.5 273.5,91.5 267.5,91.5C 249.833,91.5 232.167,91.5 214.5,91.5C 213.167,91.5 211.833,91.5 210.5,91.5C 205.833,91.5 201.167,91.5 196.5,91.5C 196.795,89.2646 196.461,87.2646 195.5,85.5C 196.441,80.9296 196.774,76.263 196.5,71.5C 196.5,71.1667 196.5,70.8333 196.5,70.5C 196.5,69.1667 196.5,67.8333 196.5,66.5C 226.167,66.5 255.833,66.5 285.5,66.5 Z"/></g>
<g><path style="opacity:1" fill="#d2ceca" d="M 196.5,70.5 C 196.5,70.8333 196.5,71.1667 196.5,71.5C 177.5,71.5 158.5,71.5 139.5,71.5C 139.5,124.833 139.5,178.167 139.5,231.5C 139.167,231.5 138.833,231.5 138.5,231.5C 138.5,177.833 138.5,124.167 138.5,70.5C 157.833,70.5 177.167,70.5 196.5,70.5 Z"/></g>
<g><path style="opacity:1" fill="#4d5d6c" d="M 196.5,71.5 C 196.774,76.263 196.441,80.9296 195.5,85.5C 182.167,85.5 168.833,85.5 155.5,85.5C 154.711,85.7828 154.044,86.2828 153.5,87C 154.165,175.264 154.832,263.431 155.5,351.5C 212.157,353.496 269.157,354.163 326.5,353.5C 326.5,318.167 326.5,282.833 326.5,247.5C 331.5,247.5 336.5,247.5 341.5,247.5C 341.833,287.506 341.5,327.506 340.5,367.5C 339.204,360.959 338.538,360.959 338.5,367.5C 272.656,367.491 206.989,367.491 141.5,367.5C 140.824,366.398 140.158,365.398 139.5,364.5C 139.5,341.5 139.5,318.5 139.5,295.5C 139.5,274.167 139.5,252.833 139.5,231.5C 139.5,178.167 139.5,124.833 139.5,71.5C 158.5,71.5 177.5,71.5 196.5,71.5 Z"/></g>
<g><path style="opacity:1" fill="#4e5d6b" d="M 285.5,71.5 C 304.5,71.5 323.5,71.5 342.5,71.5C 342.5,122.167 342.5,172.833 342.5,223.5C 340.157,221.525 337.49,219.859 334.5,218.5C 334.167,219.333 333.833,220.167 333.5,221C 334.378,222.8 335.045,224.633 335.5,226.5C 332.287,226.81 329.287,226.477 326.5,225.5C 326.5,189.167 326.5,152.833 326.5,116.5C 315.361,106.199 304.028,96.0322 292.5,86C 290.527,85.5045 288.527,85.3379 286.5,85.5C 285.559,80.9296 285.226,76.263 285.5,71.5 Z"/></g>
<g><path style="opacity:1" fill="#b1b8bf" d="M 285.5,71.5 C 285.5,71.1667 285.5,70.8333 285.5,70.5C 304.833,70.5 324.167,70.5 343.5,70.5C 343.5,95.5 343.5,120.5 343.5,145.5C 343.5,171.5 343.5,197.5 343.5,223.5C 343.167,223.5 342.833,223.5 342.5,223.5C 342.5,172.833 342.5,122.167 342.5,71.5C 323.5,71.5 304.5,71.5 285.5,71.5 Z"/></g>
<g><path style="opacity:1" fill="#fdfdfd" d="M 155.5,85.5 C 168.833,85.5 182.167,85.5 195.5,85.5C 196.461,87.2646 196.795,89.2646 196.5,91.5C 201.167,91.5 205.833,91.5 210.5,91.5C 210.334,95.5138 210.501,99.5138 211,103.5C 211.5,104 212,104.5 212.5,105C 231.5,105.667 250.5,105.667 269.5,105C 270.416,104.626 271.25,104.126 272,103.5C 272.499,99.8484 272.665,96.1817 272.5,92.5C 277.032,92.8182 281.366,92.4849 285.5,91.5C 286.239,91.631 286.906,91.4643 287.5,91C 286.62,89.6439 286.286,88.1439 286.5,86.5C 288.167,86.5 289.833,86.5 291.5,86.5C 291.334,94.84 291.5,103.173 292,111.5C 294.624,116.561 298.79,118.561 304.5,117.5C 311.819,116.812 319.152,116.479 326.5,116.5C 326.5,152.833 326.5,189.167 326.5,225.5C 321.5,225.5 316.5,225.5 311.5,225.5C 311.33,226.822 311.663,227.989 312.5,229C 315.576,229.346 318.576,230.012 321.5,231C 319.527,231.495 317.527,231.662 315.5,231.5C 307.634,230.996 305.634,233.996 309.5,240.5C 312.815,241.329 316.148,242.162 319.5,243C 317.285,244.044 314.952,244.71 312.5,245C 311.167,245.667 311.167,246.333 312.5,247C 317.155,247.499 321.821,247.666 326.5,247.5C 326.5,282.833 326.5,318.167 326.5,353.5C 269.157,354.163 212.157,353.496 155.5,351.5C 155.5,262.833 155.5,174.167 155.5,85.5 Z"/></g>
<g><path style="opacity:1" fill="#656f78" d="M 155.5,85.5 C 155.5,174.167 155.5,262.833 155.5,351.5C 154.832,263.431 154.165,175.264 153.5,87C 154.044,86.2828 154.711,85.7828 155.5,85.5 Z"/></g>
<g><path style="opacity:1" fill="#d1dce0" d="M 286.5,85.5 C 288.527,85.3379 290.527,85.5045 292.5,86C 304.028,96.0322 315.361,106.199 326.5,116.5C 319.152,116.479 311.819,116.812 304.5,117.5C 298.79,118.561 294.624,116.561 292,111.5C 291.5,103.173 291.334,94.84 291.5,86.5C 289.833,86.5 288.167,86.5 286.5,86.5C 286.286,88.1439 286.62,89.6439 287.5,91C 286.906,91.4643 286.239,91.631 285.5,91.5C 285.205,89.2646 285.539,87.2646 286.5,85.5 Z"/></g>
<g><path style="opacity:1" fill="#b9c2c9" d="M 210.5,91.5 C 211.833,91.5 213.167,91.5 214.5,91.5C 214.508,94.5448 214.841,97.5448 215.5,100.5C 232.17,100.667 248.837,100.5 265.5,100C 267.314,97.5185 267.98,94.6852 267.5,91.5C 273.5,91.5 279.5,91.5 285.5,91.5C 281.366,92.4849 277.032,92.8182 272.5,92.5C 272.665,96.1817 272.499,99.8484 272,103.5C 271.25,104.126 270.416,104.626 269.5,105C 250.5,105.667 231.5,105.667 212.5,105C 212,104.5 211.5,104 211,103.5C 210.501,99.5138 210.334,95.5138 210.5,91.5 Z"/></g>
<g><path style="opacity:1" fill="#f9fafa" d="M 214.5,91.5 C 232.167,91.5 249.833,91.5 267.5,91.5C 267.98,94.6852 267.314,97.5185 265.5,100C 248.837,100.5 232.17,100.667 215.5,100.5C 214.841,97.5448 214.508,94.5448 214.5,91.5 Z"/></g>
<g><path style="opacity:1" fill="#ad6b58" d="M 438.5,114.5 C 438.306,116.912 436.973,117.912 434.5,117.5C 434.5,118.5 434.5,119.5 434.5,120.5C 437.193,120.428 439.86,120.095 442.5,119.5C 445.11,120.465 447.444,121.798 449.5,123.5C 447.952,123.821 447.285,124.821 447.5,126.5C 446.761,126.369 446.094,126.536 445.5,127C 450.305,128.912 451.305,131.745 448.5,135.5C 449.626,134.142 449.626,132.808 448.5,131.5C 446.889,132.32 446.222,133.654 446.5,135.5C 445.835,133.302 445.168,130.969 444.5,128.5C 440.678,126.807 441.011,125.473 445.5,124.5C 444.923,122.45 443.59,121.45 441.5,121.5C 441.778,123.346 441.111,124.68 439.5,125.5C 436.834,124.262 434.168,124.262 431.5,125.5C 433.396,126.466 435.396,126.799 437.5,126.5C 437.768,128.099 437.434,129.432 436.5,130.5C 436.179,128.952 435.179,128.285 433.5,128.5C 433.285,130.179 433.952,131.179 435.5,131.5C 435.189,132.478 434.522,133.145 433.5,133.5C 432.989,131.116 431.989,129.116 430.5,127.5C 430.259,125.102 430.926,123.102 432.5,121.5C 432.875,119.302 433.542,117.302 434.5,115.5C 435.833,115.167 437.167,114.833 438.5,114.5 Z"/></g>
<g><path style="opacity:1" fill="#2c2c2b" d="M 432.5,121.5 C 434.924,121.192 437.257,121.526 439.5,122.5C 438.333,122.833 437.167,123.167 436,123.5C 434.319,123.392 433.152,122.725 432.5,121.5 Z"/></g>
<g><path style="opacity:1" fill="#687179" d="M 197.5,135.5 C 197.719,134.325 197.386,133.325 196.5,132.5C 194.064,133.891 193.398,133.391 194.5,131C 197.791,129.456 201.124,129.289 204.5,130.5C 202.604,131.466 200.604,131.799 198.5,131.5C 198.768,133.099 198.434,134.432 197.5,135.5 Z"/></g>
<g><path style="opacity:1" fill="#6f777e" d="M 273.5,129.5 C 274.978,129.238 276.311,129.571 277.5,130.5C 274.881,130.976 272.881,132.309 271.5,134.5C 276.013,134.895 277.513,137.229 276,141.5C 273.59,144.716 270.757,145.216 267.5,143C 271.82,143.5 274.154,141.667 274.5,137.5C 272.833,137.5 271.167,137.5 269.5,137.5C 269.343,136.127 269.51,134.793 270,133.5C 271.376,132.295 272.542,130.962 273.5,129.5 Z"/></g>
<g><path style="opacity:1" fill="#757b81" d="M 265.5,130.5 C 266.586,130.62 267.253,131.287 267.5,132.5C 266.316,136.454 265.316,140.454 264.5,144.5C 264.167,143.667 263.833,142.833 263.5,142C 264.569,138.226 265.236,134.393 265.5,130.5 Z"/></g>
<g><path style="opacity:1" fill="#c26f58" d="M 451.5,195.5 C 448.455,199.394 445.122,203.061 441.5,206.5C 439.955,207.452 438.288,207.785 436.5,207.5C 434.651,196.619 433.985,185.619 434.5,174.5C 432.5,174.5 430.5,174.5 428.5,174.5C 428.263,173.209 428.596,172.209 429.5,171.5C 432.337,173.402 435.671,174.069 439.5,173.5C 440.167,168.84 440.333,164.174 440,159.5C 437.31,158.071 434.477,157.071 431.5,156.5C 428.145,151.376 426.812,145.709 427.5,139.5C 427.272,135.076 428.272,131.076 430.5,127.5C 431.989,129.116 432.989,131.116 433.5,133.5C 434.522,133.145 435.189,132.478 435.5,131.5C 435.5,130.833 435.833,130.5 436.5,130.5C 437.434,129.432 437.768,128.099 437.5,126.5C 435.396,126.799 433.396,126.466 431.5,125.5C 434.168,124.262 436.834,124.262 439.5,125.5C 441.111,124.68 441.778,123.346 441.5,121.5C 443.59,121.45 444.923,122.45 445.5,124.5C 441.011,125.473 440.678,126.807 444.5,128.5C 445.168,130.969 445.835,133.302 446.5,135.5C 447.167,135.5 447.833,135.5 448.5,135.5C 451.305,131.745 450.305,128.912 445.5,127C 446.094,126.536 446.761,126.369 447.5,126.5C 449.54,127.519 451.54,127.519 453.5,126.5C 452.533,125.016 451.2,124.016 449.5,123.5C 447.444,121.798 445.11,120.465 442.5,119.5C 439.86,120.095 437.193,120.428 434.5,120.5C 434.5,119.5 434.5,118.5 434.5,117.5C 436.973,117.912 438.306,116.912 438.5,114.5C 445.414,112.708 452.08,113.375 458.5,116.5C 459.062,121.353 460.229,126.02 462,130.5C 464.52,131.207 467.02,132.04 469.5,133C 472.412,136.955 471.745,140.288 467.5,143C 465.866,143.494 464.199,143.66 462.5,143.5C 464.021,160.057 460.521,175.39 452,189.5C 451.505,191.473 451.338,193.473 451.5,195.5 Z"/></g>
<g><path style="opacity:1" fill="#382b2d" d="M 448.5,135.5 C 447.833,135.5 447.167,135.5 446.5,135.5C 446.222,133.654 446.889,132.32 448.5,131.5C 449.626,132.808 449.626,134.142 448.5,135.5 Z"/></g>
<g><path style="opacity:1" fill="#333229" d="M 436.5,130.5 C 435.833,130.5 435.5,130.833 435.5,131.5C 433.952,131.179 433.285,130.179 433.5,128.5C 435.179,128.285 436.179,128.952 436.5,130.5 Z"/></g>
<g><path style="opacity:1" fill="#302c37" d="M 449.5,123.5 C 451.2,124.016 452.533,125.016 453.5,126.5C 451.54,127.519 449.54,127.519 447.5,126.5C 447.285,124.821 447.952,123.821 449.5,123.5 Z"/></g>
<g><path style="opacity:1" fill="#61676f" d="M 197.5,135.5 C 197.579,138.271 197.079,140.937 196,143.5C 195.297,140.518 195.797,137.851 197.5,135.5 Z"/></g>
<g><path style="opacity:1" fill="#798088" d="M 238.5,130.5 C 242.338,130.007 244.338,131.674 244.5,135.5C 243.559,141.977 240.059,144.643 234,143.5C 233.333,141.167 233.333,138.833 234,136.5C 235.332,134.34 236.832,132.34 238.5,130.5 Z"/></g>
<g><path style="opacity:1" fill="#f4f7f7" d="M 240.5,132.5 C 243.126,135.673 242.793,138.84 239.5,142C 238.207,142.49 236.873,142.657 235.5,142.5C 235.075,138.017 236.741,134.683 240.5,132.5 Z"/></g>
<g><path style="opacity:1" fill="#71787f" d="M 285.5,129.5 C 292.167,130.167 292.167,130.833 285.5,131.5C 284.987,135.553 284.154,139.553 283,143.5C 282.457,140.132 282.624,136.799 283.5,133.5C 282.127,133.657 280.793,133.49 279.5,133C 281.432,131.541 283.432,130.375 285.5,129.5 Z"/></g>
<g><path style="opacity:1" fill="#66707a" d="M 256.5,130.5 C 257.139,131.097 257.472,131.93 257.5,133C 256.936,135.526 256.269,138.026 255.5,140.5C 255.833,141.167 256.167,141.833 256.5,142.5C 258.078,141.36 259.744,140.86 261.5,141C 259.231,143.023 256.564,143.856 253.5,143.5C 254.033,139.035 255.033,134.702 256.5,130.5 Z"/></g>
<g><path style="opacity:1" fill="#757b82" d="M 207.5,130.5 C 211.697,130.194 213.697,132.194 213.5,136.5C 215.604,136.201 217.604,136.534 219.5,137.5C 217.305,138.769 215.139,138.769 213,137.5C 211.693,142.484 208.526,144.651 203.5,144C 202.03,138.748 203.363,134.248 207.5,130.5 Z"/></g>
<g><path style="opacity:1" fill="#f1f4f6" d="M 209.5,132.5 C 212.166,135.754 211.833,138.921 208.5,142C 203.474,142.792 202.307,140.958 205,136.5C 206.397,134.93 207.897,133.596 209.5,132.5 Z"/></g>
<g><path style="opacity:1" fill="#6c757d" d="M 223.5,130.5 C 231.526,130.403 233.859,133.903 230.5,141C 228.017,142.326 225.517,143.493 223,144.5C 222.167,144.167 221.333,143.833 220.5,143.5C 223.67,139.646 224.67,135.313 223.5,130.5 Z"/></g>
<g><path style="opacity:1" fill="#f0f3f5" d="M 226.5,132.5 C 229.955,133.128 231.122,135.128 230,138.5C 228.428,140.563 226.595,141.229 224.5,140.5C 225.482,137.904 226.149,135.238 226.5,132.5 Z"/></g>
<g><path style="opacity:1" fill="#222835" d="M 487.5,143.5 C 490.144,153.984 491.477,164.651 491.5,175.5C 484.803,175.115 478.136,174.448 471.5,173.5C 471.119,178.237 470.286,182.904 469,187.5C 467.599,189.192 465.766,189.859 463.5,189.5C 463.788,186.134 463.954,182.8 464,179.5C 461.659,184.535 459.326,189.535 457,194.5C 455.301,195.406 453.467,195.739 451.5,195.5C 451.338,193.473 451.505,191.473 452,189.5C 460.521,175.39 464.021,160.057 462.5,143.5C 464.199,143.66 465.866,143.494 467.5,143C 471.745,140.288 472.412,136.955 469.5,133C 467.02,132.04 464.52,131.207 462,130.5C 460.229,126.02 459.062,121.353 458.5,116.5C 452.08,113.375 445.414,112.708 438.5,114.5C 437.167,114.833 435.833,115.167 434.5,115.5C 435.477,112.011 437.477,109.177 440.5,107C 452.753,99.1465 465.42,98.4798 478.5,105C 487.102,112.624 488.768,121.624 483.5,132C 485.137,135.744 486.47,139.577 487.5,143.5 Z"/></g>
<g><path style="opacity:1" fill="#fef2e9" d="M 427.5,139.5 C 426.812,145.709 428.145,151.376 431.5,156.5C 430.942,161.516 430.275,166.516 429.5,171.5C 428.596,172.209 428.263,173.209 428.5,174.5C 423.508,174.999 418.508,175.499 413.5,176C 410.274,177.198 407.441,179.031 405,181.5C 398.719,198.306 393.219,215.306 388.5,232.5C 389.993,233.141 390.993,234.141 391.5,235.5C 389.877,239.327 388.877,243.327 388.5,247.5C 386.801,247.66 385.134,247.494 383.5,247C 373.417,242.397 363.083,238.564 352.5,235.5C 352.509,233.692 352.009,232.025 351,230.5C 348.604,227.933 346.104,225.6 343.5,223.5C 343.5,197.5 343.5,171.5 343.5,145.5C 354.162,146.499 364.828,147.499 375.5,148.5C 392.515,147.416 409.515,146.416 426.5,145.5C 426.205,143.265 426.539,141.265 427.5,139.5 Z"/></g>
<g><path style="opacity:1" fill="#fef2e8" d="M 487.5,143.5 C 488.75,143.577 489.583,144.244 490,145.5C 490.333,144.833 490.667,144.167 491,143.5C 492.008,145.259 493.508,146.426 495.5,147C 502.26,148.344 508.927,150.01 515.5,152C 518.755,153.782 521.755,155.949 524.5,158.5C 528.403,159.76 532.07,161.427 535.5,163.5C 535.5,164.833 535.5,166.167 535.5,167.5C 536.833,167.5 538.167,167.5 539.5,167.5C 539.5,168.833 539.5,170.167 539.5,171.5C 540.833,171.5 542.167,171.5 543.5,171.5C 545.271,175.691 547.604,179.691 550.5,183.5C 551.48,186.086 551.813,188.753 551.5,191.5C 552.833,191.5 554.167,191.5 555.5,191.5C 559.08,208.965 560.246,226.632 559,244.5C 557.151,250.817 555.651,257.15 554.5,263.5C 553.5,263.5 552.5,263.5 551.5,263.5C 551.662,265.527 551.495,267.527 551,269.5C 549.174,272.782 547.674,276.116 546.5,279.5C 545.5,279.5 544.5,279.5 543.5,279.5C 543.598,283.25 542.431,286.583 540,289.5C 539.092,291.439 537.592,292.439 535.5,292.5C 535.5,293.5 535.5,294.5 535.5,295.5C 531.534,296.615 528.534,299.115 526.5,303C 520.681,306.665 515.348,310.831 510.5,315.5C 521.438,299.3 530.605,281.966 538,263.5C 538.667,261.5 538.667,259.5 538,257.5C 534.766,249.367 531.266,241.367 527.5,233.5C 528.391,232.739 529.058,231.739 529.5,230.5C 527.934,223.368 524.767,217.035 520,211.5C 518.766,208.58 517.766,205.58 517,202.5C 514.182,199.202 512.015,195.536 510.5,191.5C 506.274,183.603 499.941,178.27 491.5,175.5C 491.477,164.651 490.144,153.984 487.5,143.5 Z"/></g>
<g><path style="opacity:1" fill="#282a34" d="M 431.5,156.5 C 434.477,157.071 437.31,158.071 440,159.5C 440.333,164.174 440.167,168.84 439.5,173.5C 435.671,174.069 432.337,173.402 429.5,171.5C 430.275,166.516 430.942,161.516 431.5,156.5 Z"/></g>
<g><path style="opacity:1" fill="#c9d0cf" d="M 215.5,161.5 C 234.179,161.167 252.845,161.5 271.5,162.5C 262.167,162.833 252.833,163.167 243.5,163.5C 233.809,163.498 224.475,162.832 215.5,161.5 Z"/></g>
<g><path style="opacity:1" fill="#fdd1a7" d="M 192.5,162.5 C 192.068,163.71 191.401,164.71 190.5,165.5C 185.36,164.512 180.026,164.179 174.5,164.5C 174.83,170.868 174.496,177.202 173.5,183.5C 172.503,176.532 172.17,169.532 172.5,162.5C 179.167,162.5 185.833,162.5 192.5,162.5 Z"/></g>
<g><path style="opacity:1" fill="#cfd4d4" d="M 231.5,171.5 C 316.83,172.667 316.83,173.5 231.5,174C 226.167,173.667 220.833,173.333 215.5,173C 221.016,172.827 226.349,172.327 231.5,171.5 Z"/></g>
<g><path style="opacity:1" fill="#fa8176" d="M 190.5,165.5 C 191.401,164.71 192.068,163.71 192.5,162.5C 193.712,161.77 194.712,160.77 195.5,159.5C 196.583,160.365 196.749,161.365 196,162.5C 192.725,168.731 188.725,174.397 184,179.5C 181.537,177.241 180.203,174.574 180,171.5C 181.019,172.687 182.186,173.687 183.5,174.5C 185.612,171.25 187.945,168.25 190.5,165.5 Z"/></g>
<g><path style="opacity:1" fill="#fddb7a" d="M 491.5,175.5 C 499.941,178.27 506.274,183.603 510.5,191.5C 512.015,195.536 514.182,199.202 517,202.5C 517.766,205.58 518.766,208.58 520,211.5C 524.767,217.035 527.934,223.368 529.5,230.5C 529.058,231.739 528.391,232.739 527.5,233.5C 520.233,235.622 512.899,237.622 505.5,239.5C 504.417,239.539 503.417,239.873 502.5,240.5C 500.996,234.901 499.996,229.234 499.5,223.5C 498.5,223.5 497.5,223.5 496.5,223.5C 496.788,229.229 496.454,234.896 495.5,240.5C 496.325,241.386 497.325,241.719 498.5,241.5C 497.791,242.404 496.791,242.737 495.5,242.5C 496.148,255.531 493.148,267.531 486.5,278.5C 465.786,283.68 444.786,284.847 423.5,282C 419.38,281.138 415.38,279.971 411.5,278.5C 410.617,272.809 408.617,267.809 405.5,263.5C 404.668,254.847 404.002,246.18 403.5,237.5C 403.458,228.788 403.624,220.121 404,211.5C 400.263,219.021 398.763,227.021 399.5,235.5C 398.5,235.5 397.5,235.5 396.5,235.5C 394.833,235.5 393.167,235.5 391.5,235.5C 390.993,234.141 389.993,233.141 388.5,232.5C 393.219,215.306 398.719,198.306 405,181.5C 407.441,179.031 410.274,177.198 413.5,176C 418.508,175.499 423.508,174.999 428.5,174.5C 430.5,174.5 432.5,174.5 434.5,174.5C 433.985,185.619 434.651,196.619 436.5,207.5C 438.288,207.785 439.955,207.452 441.5,206.5C 445.122,203.061 448.455,199.394 451.5,195.5C 453.467,195.739 455.301,195.406 457,194.5C 459.326,189.535 461.659,184.535 464,179.5C 463.954,182.8 463.788,186.134 463.5,189.5C 465.766,189.859 467.599,189.192 469,187.5C 470.286,182.904 471.119,178.237 471.5,173.5C 478.136,174.448 484.803,175.115 491.5,175.5 Z"/></g>
<g><path style="opacity:1" fill="#cbd1cf" d="M 215.5,182.5 C 228.85,182.167 242.183,182.501 255.5,183.5C 248.833,183.833 242.167,184.167 235.5,184.5C 228.465,184.497 221.798,183.83 215.5,182.5 Z"/></g>
<g><path style="opacity:1" fill="#cccfd0" d="M 215.5,210.5 C 236.663,209.337 257.996,209.171 279.5,210C 258.172,211.7 236.839,211.867 215.5,210.5 Z"/></g>
<g><path style="opacity:1" fill="#ced4d3" d="M 215.5,219.5 C 242.175,219.167 268.842,219.5 295.5,220.5C 282.167,220.833 268.833,221.167 255.5,221.5C 241.816,221.499 228.483,220.833 215.5,219.5 Z"/></g>
<g><path style="opacity:1" fill="#fa8770" d="M 194.5,207.5 C 195.376,207.369 196.043,207.702 196.5,208.5C 193.389,215.739 189.056,222.072 183.5,227.5C 181.243,225.043 180.243,222.376 180.5,219.5C 181.281,220.737 182.281,221.737 183.5,222.5C 185.975,218.858 188.642,215.358 191.5,212C 186.167,211.667 180.833,211.333 175.5,211C 181.167,210.667 186.833,210.333 192.5,210C 193.756,209.583 194.423,208.75 194.5,207.5 Z"/></g>
<g><path style="opacity:1" fill="#cad1cf" d="M 211.5,231.5 C 225.994,230.339 240.661,230.172 255.5,231C 240.857,232.724 226.19,232.89 211.5,231.5 Z"/></g>
<g><path style="opacity:1" fill="#f7b859" d="M 403.5,237.5 C 401.048,236.935 398.715,236.268 396.5,235.5C 397.5,235.5 398.5,235.5 399.5,235.5C 398.763,227.021 400.263,219.021 404,211.5C 403.624,220.121 403.458,228.788 403.5,237.5 Z"/></g>
<g><path style="opacity:1" fill="#f8b95d" d="M 505.5,239.5 C 504.89,240.391 504.557,241.391 504.5,242.5C 502.621,241.659 500.621,241.325 498.5,241.5C 497.325,241.719 496.325,241.386 495.5,240.5C 496.454,234.896 496.788,229.229 496.5,223.5C 497.5,223.5 498.5,223.5 499.5,223.5C 499.996,229.234 500.996,234.901 502.5,240.5C 503.417,239.873 504.417,239.539 505.5,239.5 Z"/></g>
<g><path style="opacity:1" fill="#c5735b" d="M 342.5,223.5 C 342.833,223.5 343.167,223.5 343.5,223.5C 346.104,225.6 348.604,227.933 351,230.5C 352.009,232.025 352.509,233.692 352.5,235.5C 363.083,238.564 373.417,242.397 383.5,247C 385.134,247.494 386.801,247.66 388.5,247.5C 388.877,243.327 389.877,239.327 391.5,235.5C 393.167,235.5 394.833,235.5 396.5,235.5C 398.715,236.268 401.048,236.935 403.5,237.5C 404.002,246.18 404.668,254.847 405.5,263.5C 403.334,274.444 397.001,277.61 386.5,273C 382.543,271.688 378.876,269.855 375.5,267.5C 367.578,262.509 359.578,257.509 351.5,252.5C 350.064,250.917 348.398,249.417 346.5,248C 345.552,247.517 344.552,247.351 343.5,247.5C 343.167,247.5 342.833,247.5 342.5,247.5C 342.167,247.5 341.833,247.5 341.5,247.5C 336.5,247.5 331.5,247.5 326.5,247.5C 321.821,247.666 317.155,247.499 312.5,247C 311.167,246.333 311.167,245.667 312.5,245C 314.952,244.71 317.285,244.044 319.5,243C 316.148,242.162 312.815,241.329 309.5,240.5C 310.546,238.215 310.546,235.882 309.5,233.5C 311.898,233.741 313.898,233.074 315.5,231.5C 317.527,231.662 319.527,231.495 321.5,231C 318.576,230.012 315.576,229.346 312.5,229C 311.663,227.989 311.33,226.822 311.5,225.5C 316.5,225.5 321.5,225.5 326.5,225.5C 329.287,226.477 332.287,226.81 335.5,226.5C 335.045,224.633 334.378,222.8 333.5,221C 333.833,220.167 334.167,219.333 334.5,218.5C 337.49,219.859 340.157,221.525 342.5,223.5 Z"/></g>
<g><path style="opacity:1" fill="#d4a499" d="M 315.5,231.5 C 313.898,233.074 311.898,233.741 309.5,233.5C 310.546,235.882 310.546,238.215 309.5,240.5C 305.634,233.996 307.634,230.996 315.5,231.5 Z"/></g>
<g><path style="opacity:1" fill="#c5725b" d="M 527.5,233.5 C 531.266,241.367 534.766,249.367 538,257.5C 538.667,259.5 538.667,261.5 538,263.5C 530.605,281.966 521.438,299.3 510.5,315.5C 509.167,316.167 508.167,317.167 507.5,318.5C 502.821,318.334 498.155,318.501 493.5,319C 491.387,323.214 488.053,325.714 483.5,326.5C 483.5,325.5 483.5,324.5 483.5,323.5C 481.325,323.682 479.325,324.349 477.5,325.5C 475.952,323.624 473.952,322.624 471.5,322.5C 472.834,319.645 474.834,317.145 477.5,315C 475.217,314.709 473.05,315.209 471,316.5C 469.72,316.387 468.887,315.72 468.5,314.5C 471.625,311.877 474.625,309.044 477.5,306C 480.167,305 482.833,304 485.5,303C 483.893,301.951 483.227,300.451 483.5,298.5C 489.095,299.886 494.762,300.886 500.5,301.5C 501.397,302.598 502.23,302.598 503,301.5C 505.813,288.573 509.313,275.906 513.5,263.5C 511.347,256.187 508.347,249.187 504.5,242.5C 504.557,241.391 504.89,240.391 505.5,239.5C 512.899,237.622 520.233,235.622 527.5,233.5 Z"/></g>
<g><path style="opacity:1" fill="#fcf0e6" d="M 498.5,241.5 C 500.621,241.325 502.621,241.659 504.5,242.5C 508.347,249.187 511.347,256.187 513.5,263.5C 509.313,275.906 505.813,288.573 503,301.5C 502.23,302.598 501.397,302.598 500.5,301.5C 497.1,293.028 492.433,285.361 486.5,278.5C 493.148,267.531 496.148,255.531 495.5,242.5C 496.791,242.737 497.791,242.404 498.5,241.5 Z"/></g>
<g><path style="opacity:1" fill="#fbf0e5" d="M 343.5,247.5 C 344.552,247.351 345.552,247.517 346.5,248C 348.398,249.417 350.064,250.917 351.5,252.5C 349.079,254.238 346.412,255.571 343.5,256.5C 343.5,253.5 343.5,250.5 343.5,247.5 Z"/></g>
<g><path style="opacity:1" fill="#fbcfa6" d="M 192.5,257.5 C 192.672,258.492 192.338,259.158 191.5,259.5C 186.167,259.5 180.833,259.5 175.5,259.5C 174.846,265.81 174.346,272.143 174,278.5C 173.5,271.508 173.334,264.508 173.5,257.5C 179.833,257.5 186.167,257.5 192.5,257.5 Z"/></g>
<g><path style="opacity:1" fill="#ccd1d1" d="M 215.5,256.5 C 236.866,256.096 258.199,256.596 279.5,258C 268.833,258.167 258.167,258.333 247.5,258.5C 236.478,258.499 225.812,257.832 215.5,256.5 Z"/></g>
<g><path style="opacity:1" fill="#fcda7a" d="M 138.5,231.5 C 138.833,231.5 139.167,231.5 139.5,231.5C 139.5,252.833 139.5,274.167 139.5,295.5C 138.167,295.5 136.833,295.5 135.5,295.5C 135.5,294.5 135.5,293.5 135.5,292.5C 130.073,291.412 124.74,289.912 119.5,288C 114.511,287.501 109.511,287.334 104.5,287.5C 102.167,279.528 99.8335,271.528 97.5,263.5C 97.2879,246.008 100.288,229.174 106.5,213C 109.747,213.825 113.081,214.825 116.5,216C 123.757,221.448 131.091,226.615 138.5,231.5 Z"/></g>
<g><path style="opacity:1" fill="#fbcc7a" d="M 119.5,239.5 C 121.089,245.022 123.589,250.356 127,255.5C 128.079,258.063 128.579,260.729 128.5,263.5C 129.5,263.5 130.5,263.5 131.5,263.5C 131.911,268.57 133.245,273.403 135.5,278C 135.167,278.5 134.833,279 134.5,279.5C 131.889,275.827 129.555,271.994 127.5,268C 124.499,268.094 122.499,266.761 121.5,264C 115.909,261.928 110.576,259.261 105.5,256C 108.207,255.672 110.874,256.005 113.5,257C 117.071,259.558 120.905,261.725 125,263.5C 128.078,262.849 128.078,261.849 125,260.5C 124.517,256.533 123.184,252.866 121,249.5C 119.957,246.243 119.457,242.91 119.5,239.5 Z"/></g>
<g><path style="opacity:1" fill="#c8cfce" d="M 215.5,268.5 C 241.997,267.336 268.664,267.17 295.5,268C 268.844,269.833 242.177,270 215.5,268.5 Z"/></g>
<g><path style="opacity:1" fill="#f98373" d="M 191.5,259.5 C 192.338,259.158 192.672,258.492 192.5,257.5C 193.482,256.859 194.482,256.193 195.5,255.5C 195.833,255.833 196.167,256.167 196.5,256.5C 193.289,262.656 189.622,268.489 185.5,274C 184.216,274.684 183.049,274.517 182,273.5C 180.41,271.35 179.743,269.017 180,266.5C 181.019,267.687 182.186,268.687 183.5,269.5C 186.19,266.148 188.857,262.814 191.5,259.5 Z"/></g>
<g><path style="opacity:1" fill="#fdf1e6" d="M 405.5,263.5 C 408.617,267.809 410.617,272.809 411.5,278.5C 410.102,286.102 408.102,293.436 405.5,300.5C 394.848,299.804 384.181,299.47 373.5,299.5C 375.274,288.931 375.941,278.264 375.5,267.5C 378.876,269.855 382.543,271.688 386.5,273C 397.001,277.61 403.334,274.444 405.5,263.5 Z"/></g>
<g><path style="opacity:1" fill="#c8d2d3" d="M 215.5,277.5 C 228.871,277.168 242.204,277.668 255.5,279C 241.167,279.667 226.833,279.667 212.5,279C 213.737,278.768 214.737,278.268 215.5,277.5 Z"/></g>
<g><path style="opacity:1" fill="#3b4b5e" d="M 411.5,278.5 C 415.38,279.971 419.38,281.138 423.5,282C 444.786,284.847 465.786,283.68 486.5,278.5C 492.433,285.361 497.1,293.028 500.5,301.5C 494.762,300.886 489.095,299.886 483.5,298.5C 483.227,300.451 483.893,301.951 485.5,303C 482.833,304 480.167,305 477.5,306C 474.625,309.044 471.625,311.877 468.5,314.5C 468.887,315.72 469.72,316.387 471,316.5C 473.05,315.209 475.217,314.709 477.5,315C 474.834,317.145 472.834,319.645 471.5,322.5C 473.952,322.624 475.952,323.624 477.5,325.5C 479.325,324.349 481.325,323.682 483.5,323.5C 483.5,324.5 483.5,325.5 483.5,326.5C 488.053,325.714 491.387,323.214 493.5,319C 498.155,318.501 502.821,318.334 507.5,318.5C 509.762,335.116 510.096,351.782 508.5,368.5C 470.5,368.5 432.5,368.5 394.5,368.5C 395.162,364.534 395.495,360.534 395.5,356.5C 396.828,349.525 398.161,342.525 399.5,335.5C 401.243,323.784 403.243,312.117 405.5,300.5C 408.102,293.436 410.102,286.102 411.5,278.5 Z"/></g>
<g><path style="opacity:1" fill="#fdd97a" d="M 351.5,252.5 C 359.578,257.509 367.578,262.509 375.5,267.5C 375.941,278.264 375.274,288.931 373.5,299.5C 367.507,299.999 361.507,300.499 355.5,301C 351.433,302.742 347.433,304.575 343.5,306.5C 343.5,289.833 343.5,273.167 343.5,256.5C 346.412,255.571 349.079,254.238 351.5,252.5 Z"/></g>
<g><path style="opacity:1" fill="#fdb87d" d="M 104.5,287.5 C 109.511,287.334 114.511,287.501 119.5,288C 124.74,289.912 130.073,291.412 135.5,292.5C 135.5,293.5 135.5,294.5 135.5,295.5C 136.833,295.5 138.167,295.5 139.5,295.5C 139.5,318.5 139.5,341.5 139.5,364.5C 123.725,367.987 108.725,365.987 94.5,358.5C 84.0585,350.894 75.5585,341.56 69,330.5C 67.7949,329.929 66.6283,329.262 65.5,328.5C 60.1082,318.945 54.9415,309.278 50,299.5C 49.51,298.207 49.3433,296.873 49.5,295.5C 59.4269,293.169 69.4269,291.002 79.5,289C 87.7918,287.816 96.1251,287.316 104.5,287.5 Z"/></g>
<g><path style="opacity:1" fill="#fad7b4" d="M 173.5,305.5 C 180.5,305.5 187.5,305.5 194.5,305.5C 194.827,310.214 194.493,314.88 193.5,319.5C 192.509,315.555 192.176,311.555 192.5,307.5C 186.833,307.5 181.167,307.5 175.5,307.5C 174.999,314.173 174.333,320.839 173.5,327.5C 172.204,320.11 172.204,312.776 173.5,305.5 Z"/></g>
<g><path style="opacity:1" fill="#ccd1d1" d="M 220.5,304.5 C 240.2,304.105 259.867,304.605 279.5,306C 258.167,306.667 236.833,306.667 215.5,306C 217.382,305.802 219.048,305.302 220.5,304.5 Z"/></g>
<g><path style="opacity:1" fill="#cdd2d2" d="M 215.5,316.5 C 241.997,315.336 268.664,315.17 295.5,316C 268.832,317.709 242.165,317.876 215.5,316.5 Z"/></g>
<g><path style="opacity:1" fill="#f4a363" d="M 343.5,342.5 C 343.5,341.833 343.5,341.167 343.5,340.5C 348.638,337.763 353.638,334.763 358.5,331.5C 360.897,322.673 363.73,314.007 367,305.5C 367.439,309.211 367.106,312.878 366,316.5C 363.029,320.741 361.696,325.408 362,330.5C 366.133,328.19 369.966,325.524 373.5,322.5C 376.668,320.734 380.001,319.901 383.5,320C 376.833,324 370.167,328 363.5,332C 369.862,334.596 376.528,336.596 383.5,338C 376.021,337.973 368.688,337.139 361.5,335.5C 358.02,335.801 354.687,336.635 351.5,338C 349.183,340.157 346.516,341.657 343.5,342.5 Z"/></g>
<g><path style="opacity:1" fill="#c9d2d2" d="M 215.5,325.5 C 228.871,325.168 242.204,325.668 255.5,327C 240.833,327.667 226.167,327.667 211.5,327C 213.058,326.79 214.391,326.29 215.5,325.5 Z"/></g>
<g><path style="opacity:1" fill="#f6a260" d="M 66.5,303.5 C 68.9267,303.523 71.26,304.023 73.5,305C 86.9451,312.075 100.612,317.908 114.5,322.5C 112.749,318.968 111.916,315.302 112,311.5C 114.596,316.456 117.096,321.456 119.5,326.5C 110.208,331.651 100.208,334.484 89.5,335C 97.4534,331.465 105.787,328.798 114.5,327C 99.2162,320.027 83.8828,313.027 68.5,306C 67.244,305.583 66.5774,304.75 66.5,303.5 Z"/></g>
<g><path style="opacity:1" fill="#fdb87d" d="M 373.5,299.5 C 384.181,299.47 394.848,299.804 405.5,300.5C 403.243,312.117 401.243,323.784 399.5,335.5C 393.976,341.99 388.31,348.49 382.5,355C 378.008,358.872 373.008,361.706 367.5,363.5C 365.095,364.768 362.428,365.435 359.5,365.5C 354.167,365.5 348.833,365.5 343.5,365.5C 343.5,357.833 343.5,350.167 343.5,342.5C 346.516,341.657 349.183,340.157 351.5,338C 354.687,336.635 358.02,335.801 361.5,335.5C 368.688,337.139 376.021,337.973 383.5,338C 376.528,336.596 369.862,334.596 363.5,332C 370.167,328 376.833,324 383.5,320C 380.001,319.901 376.668,320.734 373.5,322.5C 369.966,325.524 366.133,328.19 362,330.5C 361.696,325.408 363.029,320.741 366,316.5C 367.106,312.878 367.439,309.211 367,305.5C 363.73,314.007 360.897,322.673 358.5,331.5C 353.638,334.763 348.638,337.763 343.5,340.5C 343.5,329.167 343.5,317.833 343.5,306.5C 347.433,304.575 351.433,302.742 355.5,301C 361.507,300.499 367.507,299.999 373.5,299.5 Z"/></g>
<g><path style="opacity:1" fill="#fcefe4" d="M 399.5,335.5 C 398.161,342.525 396.828,349.525 395.5,356.5C 394.596,357.209 394.263,358.209 394.5,359.5C 385.409,360.261 376.409,361.595 367.5,363.5C 373.008,361.706 378.008,358.872 382.5,355C 388.31,348.49 393.976,341.99 399.5,335.5 Z"/></g>
<g><path style="opacity:1" fill="#d0b796" d="M 342.5,247.5 C 342.833,247.5 343.167,247.5 343.5,247.5C 343.5,250.5 343.5,253.5 343.5,256.5C 343.5,273.167 343.5,289.833 343.5,306.5C 343.5,317.833 343.5,329.167 343.5,340.5C 343.5,341.167 343.5,341.833 343.5,342.5C 343.5,350.167 343.5,357.833 343.5,365.5C 348.833,365.5 354.167,365.5 359.5,365.5C 353.731,365.929 348.064,366.929 342.5,368.5C 342.5,328.167 342.5,287.833 342.5,247.5 Z"/></g>
<g><path style="opacity:1" fill="#5a6169" d="M 341.5,247.5 C 341.833,247.5 342.167,247.5 342.5,247.5C 342.5,287.833 342.5,328.167 342.5,368.5C 274.833,368.5 207.167,368.5 139.5,368.5C 139.5,367.167 139.5,365.833 139.5,364.5C 140.158,365.398 140.824,366.398 141.5,367.5C 206.989,367.491 272.656,367.491 338.5,367.5C 338.538,360.959 339.204,360.959 340.5,367.5C 341.5,327.506 341.833,287.506 341.5,247.5 Z"/></g>
</svg>
