<?xml version="1.0" encoding="UTF-8"?>
<!DOCTYPE svg PUBLIC "-//W3C//DTD SVG 1.1//EN" "http://www.w3.org/Graphics/SVG/1.1/DTD/svg11.dtd">
<svg xmlns="http://www.w3.org/2000/svg" version="1.1" width="1280px" height="720px" style="shape-rendering:geometricPrecision; text-rendering:geometricPrecision; image-rendering:optimizeQuality; fill-rule:evenodd; clip-rule:evenodd" xmlns:xlink="http://www.w3.org/1999/xlink">
<g><path style="opacity:1" fill="#4070f4" d="M -0.5,-0.5 C 426.167,-0.5 852.833,-0.5 1279.5,-0.5C 1279.5,239.5 1279.5,479.5 1279.5,719.5C 852.833,719.5 426.167,719.5 -0.5,719.5C -0.5,479.5 -0.5,239.5 -0.5,-0.5 Z"/></g>
<g><path style="opacity:1" fill="#fdfdfe" d="M 1072.5,656.5 C 1070.64,657.594 1068.64,658.427 1066.5,659C 933.167,659.5 799.834,659.667 666.5,659.5C 662.602,657.724 660.102,654.724 659,650.5C 658.333,455.833 658.333,261.167 659,66.5C 660.5,63.6667 662.667,61.5 665.5,60C 799.833,59.3333 934.167,59.3333 1068.5,60C 1070.61,61.1411 1072.44,62.6411 1074,64.5C 1075.66,259.778 1076,455.111 1075,650.5C 1074.43,652.641 1073.59,654.641 1072.5,656.5 Z"/></g>
<g><path style="opacity:1" fill="#e6ecfd" d="M 612.5,77.5 C 478.145,77.1734 343.812,77.5067 209.5,78.5C 209.918,77.7784 210.584,77.2784 211.5,77C 345.334,76.1673 479.001,76.334 612.5,77.5 Z"/></g>
<g><path style="opacity:1" fill="#fefefe" d="M 612.5,77.5 C 615.089,78.4194 617.089,80.086 618.5,82.5C 619.832,267.507 619.832,452.507 618.5,637.5C 616.996,639.836 614.996,641.669 612.5,643C 478.833,643.667 345.167,643.667 211.5,643C 209.04,641.542 206.873,639.709 205,637.5C 203.337,453.222 203.004,268.889 204,84.5C 205.382,81.9568 207.215,79.9568 209.5,78.5C 343.812,77.5067 478.145,77.1734 612.5,77.5 Z"/></g>
<g><path style="opacity:1" fill="#b6c8fa" d="M 618.5,82.5 C 619.222,82.9175 619.722,83.5842 620,84.5C 620.667,268.167 620.667,451.833 620,635.5C 619.722,636.416 619.222,637.082 618.5,637.5C 619.832,452.507 619.832,267.507 618.5,82.5 Z"/></g>
<g><path style="opacity:1" fill="#494958" d="M 838.5,96.5 C 839.5,96.5 840.5,96.5 841.5,96.5C 841.833,99.5 840.5,100.833 837.5,100.5C 837.433,99.0413 837.766,97.7079 838.5,96.5 Z"/></g>
<g><path style="opacity:1" fill="#353949" d="M 822.5,98.5 C 825.518,98.3354 828.518,98.502 831.5,99C 833.037,100.11 833.703,101.61 833.5,103.5C 830.861,103.429 828.694,102.429 827,100.5C 824.498,101.501 823.998,103.167 825.5,105.5C 829.401,106.092 832.068,108.092 833.5,111.5C 832.422,117.095 829.088,118.928 823.5,117C 822.313,115.981 821.313,114.814 820.5,113.5C 821.167,113.167 821.833,112.833 822.5,112.5C 824.167,113.167 825.833,113.833 827.5,114.5C 829.266,114.566 830.266,113.732 830.5,112C 827.513,109.99 824.347,108.157 821,106.5C 820.109,103.502 820.609,100.836 822.5,98.5 Z"/></g>
<g><path style="opacity:1" fill="#4d485d" d="M 837.5,102.5 C 838.833,102.5 840.167,102.5 841.5,102.5C 841.5,107.5 841.5,112.5 841.5,117.5C 840.167,117.5 838.833,117.5 837.5,117.5C 837.5,112.5 837.5,107.5 837.5,102.5 Z"/></g>
<g><path style="opacity:1" fill="#363448" d="M 845.5,114.5 C 845.01,110.513 845.676,106.846 847.5,103.5C 851.467,102.968 855.467,102.634 859.5,102.5C 859.666,108.176 859.499,113.843 859,119.5C 856.519,124.389 852.686,125.722 847.5,123.5C 846.833,122.5 846.167,121.5 845.5,120.5C 846,120.167 846.5,119.833 847,119.5C 849.225,121.278 851.725,121.778 854.5,121C 855.576,119.274 855.743,117.441 855,115.5C 851.421,118.373 848.255,118.04 845.5,114.5 Z"/></g>
<g><path style="opacity:1" fill="#3f3a4f" d="M 881.5,102.5 C 882.5,102.5 883.5,102.5 884.5,102.5C 884.335,105.85 884.502,109.183 885,112.5C 886.733,114.602 888.733,114.935 891,113.5C 891.499,109.848 891.665,106.182 891.5,102.5C 892.833,102.5 894.167,102.5 895.5,102.5C 895.5,107.5 895.5,112.5 895.5,117.5C 891.873,116.642 888.206,116.476 884.5,117C 883.667,116.167 882.833,115.333 882,114.5C 881.501,110.514 881.334,106.514 881.5,102.5 Z"/></g>
<g><path style="opacity:1" fill="#3a3547" d="M 899.5,102.5 C 903.408,102.838 907.408,103.005 911.5,103C 915.779,108.033 915.446,112.7 910.5,117C 907.743,117.782 905.243,117.282 903,115.5C 902.502,118.482 902.335,121.482 902.5,124.5C 901.5,124.5 900.5,124.5 899.5,124.5C 899.5,117.167 899.5,109.833 899.5,102.5 Z"/></g>
<g><path style="opacity:1" fill="#434355" d="M 863.5,102.5 C 867.079,102.92 870.746,103.086 874.5,103C 875.333,103.833 876.167,104.667 877,105.5C 877.499,109.486 877.666,113.486 877.5,117.5C 876.167,117.5 874.833,117.5 873.5,117.5C 873.665,113.818 873.499,110.152 873,106.5C 871.333,105.167 869.667,105.167 868,106.5C 867.501,110.152 867.335,113.818 867.5,117.5C 866.167,117.5 864.833,117.5 863.5,117.5C 863.5,112.5 863.5,107.5 863.5,102.5 Z"/></g>
<g><path style="opacity:1" fill="#ebedec" d="M 849.5,105.5 C 855.067,104.753 856.9,107.087 855,112.5C 850.857,115.671 848.357,114.671 847.5,109.5C 847.803,107.886 848.47,106.552 849.5,105.5 Z"/></g>
<g><path style="opacity:1" fill="#e9ebeb" d="M 904.5,105.5 C 910.067,104.753 911.9,107.087 910,112.5C 907.756,114.994 905.423,114.994 903,112.5C 902.185,109.802 902.685,107.468 904.5,105.5 Z"/></g>
<g><path style="opacity:1" fill="#7e5b53" d="M 847.5,103.5 C 845.676,106.846 845.01,110.513 845.5,114.5C 844.883,114.389 844.383,114.056 844,113.5C 843.333,111.167 843.333,108.833 844,106.5C 844.422,104.574 845.589,103.574 847.5,103.5 Z"/></g>
<g><path style="opacity:1" fill="#35384b" d="M 425.5,113.5 C 428.5,113.167 429.833,114.5 429.5,117.5C 428.167,117.5 426.833,117.5 425.5,117.5C 425.5,116.167 425.5,114.833 425.5,113.5 Z"/></g>
<g><path style="opacity:1" fill="#322f44" d="M 386.5,132.5 C 384.012,134.388 381.012,135.055 377.5,134.5C 377.5,128.5 377.5,122.5 377.5,116.5C 378.5,116.5 379.5,116.5 380.5,116.5C 380.5,121.833 380.5,127.167 380.5,132.5C 382.5,132.5 384.5,132.5 386.5,132.5 Z"/></g>
<g><path style="opacity:1" fill="#a5a6b1" d="M 386.5,132.5 C 384.5,132.5 382.5,132.5 380.5,132.5C 380.5,127.167 380.5,121.833 380.5,116.5C 379.5,116.5 378.5,116.5 377.5,116.5C 377.5,122.5 377.5,128.5 377.5,134.5C 376.51,128.355 376.177,122.022 376.5,115.5C 378.167,115.5 379.833,115.5 381.5,115.5C 381.5,120.833 381.5,126.167 381.5,131.5C 383.415,131.216 385.081,131.549 386.5,132.5 Z"/></g>
<g><path style="opacity:1" fill="#343546" d="M 425.5,119.5 C 426.5,119.5 427.5,119.5 428.5,119.5C 428.5,124.5 428.5,129.5 428.5,134.5C 427.5,134.5 426.5,134.5 425.5,134.5C 425.5,129.5 425.5,124.5 425.5,119.5 Z"/></g>
<g><path style="opacity:1" fill="#423e4a" d="M 432.5,119.5 C 435.383,120.31 438.217,120.31 441,119.5C 442.982,119.99 444.649,120.99 446,122.5C 446.499,126.486 446.666,130.486 446.5,134.5C 445.5,134.5 444.5,134.5 443.5,134.5C 443.665,131.15 443.498,127.817 443,124.5C 441.267,122.398 439.267,122.065 437,123.5C 436.501,127.152 436.335,130.818 436.5,134.5C 435.167,134.5 433.833,134.5 432.5,134.5C 432.5,129.5 432.5,124.5 432.5,119.5 Z"/></g>
<g><path style="opacity:1" fill="#353647" d="M 402.5,122.5 C 402.677,126.234 402.344,129.901 401.5,133.5C 394.135,136.565 389.802,134.231 388.5,126.5C 389.178,122.324 391.678,119.991 396,119.5C 398.443,120.03 400.61,121.03 402.5,122.5 Z"/></g>
<g><path style="opacity:1" fill="#ece8e3" d="M 393.5,122.5 C 400.494,122.415 402.161,125.248 398.5,131C 396.299,131.825 394.466,131.325 393,129.5C 392.444,127.115 392.61,124.782 393.5,122.5 Z"/></g>
<g><path style="opacity:1" fill="#5a82a7" d="M 402.5,122.5 C 405.191,126.397 404.858,130.063 401.5,133.5C 402.344,129.901 402.677,126.234 402.5,122.5 Z"/></g>
<g><path style="opacity:1" fill="#b18e79" d="M 408.5,121.5 C 405.833,125.5 405.833,129.5 408.5,133.5C 406.069,132.393 405.069,130.393 405.5,127.5C 405.069,124.607 406.069,122.607 408.5,121.5 Z"/></g>
<g><path style="opacity:1" fill="#3a3b4c" d="M 408.5,133.5 C 405.833,129.5 405.833,125.5 408.5,121.5C 411.142,118.966 413.976,118.966 417,121.5C 418.049,119.893 419.549,119.227 421.5,119.5C 421.92,126.284 421.42,132.95 420,139.5C 416.817,141.523 413.317,142.023 409.5,141C 407.688,139.373 407.521,137.873 409,136.5C 411.267,138.258 413.767,138.758 416.5,138C 417.747,136.506 417.747,135.006 416.5,133.5C 413.802,134.824 411.136,134.824 408.5,133.5 Z"/></g>
<g><path style="opacity:1" fill="#f3f4f2" d="M 410.5,123.5 C 417.536,122.603 419.203,125.103 415.5,131C 409.785,131.401 408.119,128.901 410.5,123.5 Z"/></g>
<g><path style="opacity:1" fill="#e4e4e4" d="M 1046.5,162.5 C 1046.17,162.5 1045.83,162.5 1045.5,162.5C 1044.69,161.531 1043.69,160.698 1042.5,160C 925.5,159.333 808.5,159.333 691.5,160C 691,160.5 690.5,161 690,161.5C 689.333,175.5 689.333,189.5 690,203.5C 690.995,204.066 691.828,204.733 692.5,205.5C 692.5,205.833 692.5,206.167 692.5,206.5C 690.292,205.977 688.792,204.644 688,202.5C 687.333,188.833 687.333,175.167 688,161.5C 688.5,159.667 689.667,158.5 691.5,158C 808.5,157.333 925.5,157.333 1042.5,158C 1044.64,158.792 1045.98,160.292 1046.5,162.5 Z"/></g>
<g><path style="opacity:1" fill="#fefefe" d="M 1045.5,162.5 C 1045.67,175.837 1045.5,189.171 1045,202.5C 1044.17,203.333 1043.33,204.167 1042.5,205C 925.834,205.5 809.167,205.667 692.5,205.5C 691.828,204.733 690.995,204.066 690,203.5C 689.333,189.5 689.333,175.5 690,161.5C 690.5,161 691,160.5 691.5,160C 808.5,159.333 925.5,159.333 1042.5,160C 1043.69,160.698 1044.69,161.531 1045.5,162.5 Z"/></g>
<g><path style="opacity:1" fill="#a5a6ad" d="M 742.5,176.5 C 743.787,177.871 744.453,179.705 744.5,182C 744.167,183.833 743.833,185.667 743.5,187.5C 742.511,183.893 742.177,180.226 742.5,176.5 Z"/></g>
<g><path style="opacity:1" fill="#a69f9e" d="M 729.5,179.5 C 731.877,179.784 734.044,179.784 736,179.5C 736.818,182.227 736.652,184.894 735.5,187.5C 733.5,188.833 731.5,188.833 729.5,187.5C 728.271,184.801 728.271,182.135 729.5,179.5 Z"/></g>
<g><path style="opacity:1" fill="#aaa4a5" d="M 712.5,179.5 C 716.669,179.852 720.669,180.018 724.5,180C 726.619,182.218 726.952,184.718 725.5,187.5C 724.534,185.604 724.201,183.604 724.5,181.5C 723.167,181.5 721.833,181.5 720.5,181.5C 720.799,183.604 720.466,185.604 719.5,187.5C 717.5,178.167 715.5,178.167 713.5,187.5C 712.52,184.914 712.187,182.247 712.5,179.5 Z"/></g>
<g><path style="opacity:1" fill="#f3f6f7" d="M 731.5,180.5 C 732.496,180.414 733.329,180.748 734,181.5C 734.494,183.134 734.66,184.801 734.5,186.5C 729.294,186.541 728.294,184.541 731.5,180.5 Z"/></g>
<g><path style="opacity:1" fill="#aea8ab" d="M 704.5,177.5 C 706.527,177.338 708.527,177.505 710.5,178C 709.207,178.49 707.873,178.657 706.5,178.5C 706.5,179.833 706.5,181.167 706.5,182.5C 710.5,182.833 710.5,183.167 706.5,183.5C 706.5,184.5 706.5,185.5 706.5,186.5C 707.978,186.238 709.311,186.571 710.5,187.5C 708.604,188.466 706.604,188.799 704.5,188.5C 704.5,184.833 704.5,181.167 704.5,177.5 Z"/></g>
<g><path style="opacity:1" fill="#cacaca" d="M 1045.5,162.5 C 1045.83,162.5 1046.17,162.5 1046.5,162.5C 1046.67,176.171 1046.5,189.837 1046,203.5C 1045.17,204.333 1044.33,205.167 1043.5,206C 926.5,206.5 809.5,206.667 692.5,206.5C 692.5,206.167 692.5,205.833 692.5,205.5C 809.167,205.667 925.834,205.5 1042.5,205C 1043.33,204.167 1044.17,203.333 1045,202.5C 1045.5,189.171 1045.67,175.837 1045.5,162.5 Z"/></g>
<g><path style="opacity:1" fill="#dddddd" d="M 235.5,175.5 C 353.167,175.333 470.834,175.5 588.5,176C 589.333,176.833 590.167,177.667 591,178.5C 591.667,192.5 591.667,206.5 591,220.5C 590.5,222.333 589.333,223.5 587.5,224C 470.167,224.667 352.833,224.667 235.5,224C 234.299,223.097 233.465,221.931 233,220.5C 232.333,206.5 232.333,192.5 233,178.5C 234.045,177.627 234.878,176.627 235.5,175.5 Z"/></g>
<g><path style="opacity:1" fill="#fefefe" d="M 236.5,176.5 C 353.167,176.333 469.834,176.5 586.5,177C 587.416,177.374 588.25,177.874 589,178.5C 589.667,192.5 589.667,206.5 589,220.5C 588.5,221 588,221.5 587.5,222C 470.165,222.833 352.832,222.667 235.5,221.5C 235.192,220.692 234.692,220.025 234,219.5C 233.333,206.167 233.333,192.833 234,179.5C 235.045,178.627 235.878,177.627 236.5,176.5 Z"/></g>
<g><path style="opacity:1" fill="#9d999a" d="M 275.5,195.5 C 277.46,196.138 279.293,196.138 281,195.5C 281.498,198.482 281.665,201.482 281.5,204.5C 275.014,206.165 272.181,203.832 273,197.5C 273.995,196.934 274.828,196.267 275.5,195.5 Z"/></g>
<g><path style="opacity:1" fill="#9b9497" d="M 249.5,193.5 C 251.199,193.34 252.866,193.506 254.5,194C 253.552,194.483 252.552,194.649 251.5,194.5C 251.5,195.833 251.5,197.167 251.5,198.5C 255.172,199.045 254.838,199.378 250.5,199.5C 250.5,200.833 250.5,202.167 250.5,203.5C 255.5,204.003 255.167,204.336 249.5,204.5C 249.5,200.833 249.5,197.167 249.5,193.5 Z"/></g>
<g><path style="opacity:1" fill="#f2f5f4" d="M 275.5,197.5 C 276.833,197.5 278.167,197.5 279.5,197.5C 279.66,199.199 279.494,200.866 279,202.5C 274.633,203.575 273.466,201.908 275.5,197.5 Z"/></g>
<g><path style="opacity:1" fill="#a3a1aa" d="M 257.5,195.5 C 261.369,195.943 265.369,196.109 269.5,196C 271.65,198.555 271.983,201.388 270.5,204.5C 269.526,202.257 269.192,199.924 269.5,197.5C 268.167,197.5 266.833,197.5 265.5,197.5C 264.833,206.833 264.167,206.833 263.5,197.5C 261.856,197.286 260.356,197.62 259,198.5C 258.667,200.5 258.333,202.5 258,204.5C 257.502,201.518 257.335,198.518 257.5,195.5 Z"/></g>
<g><path style="opacity:1" fill="#a9b3bf" d="M 287.5,192.5 C 288.794,194.048 289.461,196.048 289.5,198.5C 289.167,200.5 288.833,202.5 288.5,204.5C 287.509,200.555 287.176,196.555 287.5,192.5 Z"/></g>
<g><path style="opacity:1" fill="#ececec" d="M 1045.5,229.5 C 1045.83,243.344 1045.5,257.01 1044.5,270.5C 1044.82,256.255 1044.49,242.088 1043.5,228C 926.167,227.333 808.833,227.333 691.5,228C 691,228.5 690.5,229 690,229.5C 689.184,243.545 689.351,257.545 690.5,271.5C 807.831,272.5 925.165,272.833 1042.5,272.5C 925.833,273.167 809.167,273.833 692.5,274.5C 690.292,273.977 688.792,272.644 688,270.5C 687.333,256.833 687.333,243.167 688,229.5C 688.5,227.667 689.667,226.5 691.5,226C 808.833,225.333 926.167,225.333 1043.5,226C 1044.82,226.816 1045.49,227.983 1045.5,229.5 Z"/></g>
<g><path style="opacity:1" fill="#fefefe" d="M 1044.5,270.5 C 1044.17,271.5 1043.5,272.167 1042.5,272.5C 925.165,272.833 807.831,272.5 690.5,271.5C 689.351,257.545 689.184,243.545 690,229.5C 690.5,229 691,228.5 691.5,228C 808.833,227.333 926.167,227.333 1043.5,228C 1044.49,242.088 1044.82,256.255 1044.5,270.5 Z"/></g>
<g><path style="opacity:1" fill="#ada7a3" d="M 773.5,247.5 C 775.833,247.5 778.167,247.5 780.5,247.5C 780.5,250.167 780.5,252.833 780.5,255.5C 772.462,257.029 770.129,254.363 773.5,247.5 Z"/></g>
<g><path style="opacity:1" fill="#aca4a3" d="M 812.5,253.5 C 810.506,247.997 812.506,246.164 818.5,248C 820.248,253.424 818.248,256.258 812.5,256.5C 812.5,255.5 812.5,254.5 812.5,253.5 Z"/></g>
<g><path style="opacity:1" fill="#a3949c" d="M 821.5,247.5 C 822.978,247.238 824.311,247.571 825.5,248.5C 824.119,250.635 823.119,252.968 822.5,255.5C 821.52,252.914 821.187,250.247 821.5,247.5 Z"/></g>
<g><path style="opacity:1" fill="#9f9ea6" d="M 742.5,245.5 C 743.922,245.75 744.922,246.583 745.5,248C 744.167,250.333 744.167,252.667 745.5,255C 744.552,255.483 743.552,255.649 742.5,255.5C 742.5,252.167 742.5,248.833 742.5,245.5 Z"/></g>
<g><path style="opacity:1" fill="#eff3f3" d="M 774.5,248.5 C 778.35,248.701 779.35,250.534 777.5,254C 773.537,254.118 772.537,252.284 774.5,248.5 Z"/></g>
<g><path style="opacity:1" fill="#ebf1f3" d="M 812.5,253.5 C 811.737,249.862 813.07,248.362 816.5,249C 818.413,253.585 817.079,255.085 812.5,253.5 Z"/></g>
<g><path style="opacity:1" fill="#a5aab4" d="M 716.5,247.5 C 717.873,247.343 719.207,247.51 720.5,248C 719.029,250.243 718.029,252.743 717.5,255.5C 716.52,252.914 716.187,250.247 716.5,247.5 Z"/></g>
<g><path style="opacity:1" fill="#bcbabb" d="M 723.5,247.5 C 726.652,246.959 729.152,247.959 731,250.5C 733.544,247.899 736.71,246.899 740.5,247.5C 740.5,250.167 740.5,252.833 740.5,255.5C 734.758,255.059 729.091,254.892 723.5,255C 720.88,252.441 720.88,249.941 723.5,247.5 Z"/></g>
<g><path style="opacity:1" fill="#f9f9f7" d="M 733.5,249.5 C 735.167,249.5 736.833,249.5 738.5,249.5C 739.169,253.676 737.669,255.009 734,253.5C 733.51,252.207 733.343,250.873 733.5,249.5 Z"/></g>
<g><path style="opacity:1" fill="#bab8b9" d="M 749.5,246.5 C 755.263,246.783 756.93,249.616 754.5,255C 747.416,255.475 745.749,252.642 749.5,246.5 Z"/></g>
<g><path style="opacity:1" fill="#bebcbd" d="M 783.5,247.5 C 785.288,247.215 786.955,247.548 788.5,248.5C 787.609,249.59 786.609,249.59 785.5,248.5C 784.167,249.167 784.167,249.833 785.5,250.5C 787.071,251.309 788.738,251.643 790.5,251.5C 790.759,247.932 792.759,246.599 796.5,247.5C 795.629,250.062 795.629,252.728 796.5,255.5C 792.158,255.739 787.824,256.073 783.5,256.5C 783.351,255.448 783.517,254.448 784,253.5C 785.183,254.731 786.349,254.731 787.5,253.5C 783.191,253.223 781.858,251.223 783.5,247.5 Z"/></g>
<g><path style="opacity:1" fill="#a3a8b6" d="M 803.5,247.5 C 804.496,247.414 805.329,247.748 806,248.5C 806.233,250.78 807.066,252.78 808.5,254.5C 808.167,254.833 807.833,255.167 807.5,255.5C 805.813,252.976 804.48,250.31 803.5,247.5 Z"/></g>
<g><path style="opacity:1" fill="#adabae" d="M 705.5,245.5 C 708.448,245.223 711.281,245.556 714,246.5C 714.688,247.332 714.521,247.998 713.5,248.5C 707.354,244.974 705.354,246.641 707.5,253.5C 709.491,254.427 711.491,254.594 713.5,254C 710.812,257.073 707.979,257.24 705,254.5C 704.366,251.445 704.532,248.445 705.5,245.5 Z"/></g>
<g><path style="opacity:1" fill="#a9a0a2" d="M 761.5,247.5 C 763.857,247.337 766.19,247.503 768.5,248C 771.1,250.459 771.1,252.959 768.5,255.5C 766.994,256.747 765.494,256.747 764,255.5C 763.781,256.938 763.281,258.271 762.5,259.5C 761.509,255.555 761.176,251.555 761.5,247.5 Z"/></g>
<g><path style="opacity:1" fill="#f4f6f5" d="M 764.5,248.5 C 768.35,248.701 769.35,250.534 767.5,254C 763.537,254.118 762.537,252.284 764.5,248.5 Z"/></g>
<g><path style="opacity:1" fill="#c5c1c0" d="M 834.5,244.5 C 835.808,248.019 835.808,251.685 834.5,255.5C 827.918,257.665 825.751,255.332 828,248.5C 830,247.167 832,247.167 834,248.5C 834.49,247.207 834.657,245.873 834.5,244.5 Z"/></g>
<g><path style="opacity:1" fill="#d6d6d6" d="M 1045.5,229.5 C 1046.66,243.327 1046.83,257.327 1046,271.5C 1045.17,272.333 1044.33,273.167 1043.5,274C 926.5,274.5 809.5,274.667 692.5,274.5C 809.167,273.833 925.833,273.167 1042.5,272.5C 1043.5,272.167 1044.17,271.5 1044.5,270.5C 1045.5,257.01 1045.83,243.344 1045.5,229.5 Z"/></g>
<g><path style="opacity:1" fill="#d8d8d8" d="M 235.5,243.5 C 353.167,243.333 470.834,243.5 588.5,244C 589.333,244.833 590.167,245.667 591,246.5C 591.667,260.5 591.667,274.5 591,288.5C 590.167,289.333 589.333,290.167 588.5,291C 471.167,291.667 353.833,291.667 236.5,291C 353.5,290.667 470.5,290.333 587.5,290C 588,289.5 588.5,289 589,288.5C 589.667,274.5 589.667,260.5 589,246.5C 588.25,245.874 587.416,245.374 586.5,245C 469.833,244.333 353.167,244.333 236.5,245C 235.667,245.833 234.833,246.667 234,247.5C 233.667,260.833 233.333,274.167 233,287.5C 232.333,273.833 232.333,260.167 233,246.5C 234.045,245.627 234.878,244.627 235.5,243.5 Z"/></g>
<g><path style="opacity:1" fill="#b1b0b1" d="M 568.5,271.5 C 563.76,274.316 560.427,272.816 558.5,267C 559.009,265.831 559.842,264.998 561,264.5C 560.934,269.758 563.434,272.092 568.5,271.5 Z"/></g>
<g><path style="opacity:1" fill="#bec2c6" d="M 284.5,263.5 C 286.117,264.589 286.95,266.256 287,268.5C 288.237,266.896 289.403,265.229 290.5,263.5C 291.924,268.198 290.258,271.198 285.5,272.5C 285.296,269.482 284.963,266.482 284.5,263.5 Z"/></g>
<g><path style="opacity:1" fill="#a4a4a9" d="M 277.5,263.5 C 279.827,263.247 281.827,263.914 283.5,265.5C 281.979,265.88 280.313,266.046 278.5,266C 279.665,267.084 280.998,267.917 282.5,268.5C 283.429,269.689 283.762,271.022 283.5,272.5C 281.396,272.799 279.396,272.466 277.5,271.5C 278.833,271.167 280.167,270.833 281.5,270.5C 280.68,268.889 279.346,268.222 277.5,268.5C 277.5,266.833 277.5,265.167 277.5,263.5 Z"/></g>
<g><path style="opacity:1" fill="#99959b" d="M 269.5,263.5 C 272.022,263.128 274.022,263.961 275.5,266C 273.775,265.591 272.108,265.758 270.5,266.5C 273.522,267.004 274.689,268.671 274,271.5C 273.064,269.292 271.398,267.958 269,267.5C 268.421,266.072 268.588,264.738 269.5,263.5 Z"/></g>
<g><path style="opacity:1" fill="#bba89f" d="M 312.5,265.5 C 311.5,265.5 310.5,265.5 309.5,265.5C 309.808,267.924 309.474,270.257 308.5,272.5C 307.167,269.5 307.167,266.5 308.5,263.5C 309.5,264.833 310.5,264.833 311.5,263.5C 312.298,263.957 312.631,264.624 312.5,265.5 Z"/></g>
<g><path style="opacity:1" fill="#9aa0b1" d="M 304.5,265.5 C 307.134,267.54 307.134,269.707 304.5,272C 302.011,272.941 300.011,272.441 298.5,270.5C 303.433,272.575 305.433,270.908 304.5,265.5 Z"/></g>
<g><path style="opacity:1" fill="#969194" d="M 254.5,262.5 C 256.344,263.204 256.844,264.537 256,266.5C 254.301,267.406 252.467,267.739 250.5,267.5C 250.66,269.199 250.494,270.866 250,272.5C 249.501,268.848 249.335,265.182 249.5,261.5C 251.415,261.216 253.081,261.549 254.5,262.5 Z"/></g>
<g><path style="opacity:1" fill="#eef1f1" d="M 304.5,265.5 C 305.433,270.908 303.433,272.575 298.5,270.5C 298.062,266.092 300.062,264.425 304.5,265.5 Z"/></g>
<g><path style="opacity:1" fill="#a9a6a9" d="M 312.5,265.5 C 314.419,263.478 316.586,263.144 319,264.5C 319.219,263.062 319.719,261.729 320.5,260.5C 321.491,264.445 321.824,268.445 321.5,272.5C 315.777,273.429 312.777,271.096 312.5,265.5 Z"/></g>
<g><path style="opacity:1" fill="#f5f6f4" d="M 314.5,265.5 C 316.167,265.5 317.833,265.5 319.5,265.5C 317.889,273.44 316.222,273.44 314.5,265.5 Z"/></g>
<g><path style="opacity:1" fill="#a79fa2" d="M 263.5,271.5 C 258.655,272.817 256.822,270.817 258,265.5C 258.5,265 259,264.5 259.5,264C 261.657,263.922 263.657,263.755 265.5,263.5C 266.833,266.5 266.833,269.5 265.5,272.5C 264.817,272.137 264.15,271.804 263.5,271.5 Z"/></g>
<g><path style="opacity:1" fill="#f1f3f3" d="M 263.5,271.5 C 259.932,271.241 258.599,269.241 259.5,265.5C 261.167,265.5 262.833,265.5 264.5,265.5C 264.675,267.621 264.341,269.621 263.5,271.5 Z"/></g>
<g><path style="opacity:1" fill="#999395" d="M 304.5,265.5 C 300.062,264.425 298.062,266.092 298.5,270.5C 296.5,265.657 298.167,263.491 303.5,264C 304.056,264.383 304.389,264.883 304.5,265.5 Z"/></g>
<g><path style="opacity:1" fill="#eef0f2" d="M 254.5,262.5 C 254.5,263.833 254.5,265.167 254.5,266.5C 253.167,266.5 251.833,266.5 250.5,266.5C 250.5,265.167 250.5,263.833 250.5,262.5C 251.833,262.5 253.167,262.5 254.5,262.5 Z"/></g>
<g><path style="opacity:1" fill="#a49fa0" d="M 568.5,271.5 C 566.008,268.531 563.508,265.531 561,262.5C 560.333,261.833 560.333,261.167 561,260.5C 561.689,261.357 562.522,262.023 563.5,262.5C 567.737,260.783 571.237,261.783 574,265.5C 574.756,267.809 574.256,269.809 572.5,271.5C 573.167,272.5 573.833,273.5 574.5,274.5C 574.167,274.833 573.833,275.167 573.5,275.5C 571.814,274.143 570.148,272.81 568.5,271.5 Z"/></g>
<g><path style="opacity:1" fill="#ebedec" d="M 564.5,264.5 C 566.772,263.236 569.105,263.402 571.5,265C 572.38,266.356 572.714,267.856 572.5,269.5C 571.5,269.5 570.5,269.5 569.5,269.5C 569.43,266.341 567.763,264.674 564.5,264.5 Z"/></g>
<g><path style="opacity:1" fill="#94b5e6" d="M 352.5,308.5 C 354.604,308.201 356.604,308.534 358.5,309.5C 357.311,310.429 355.978,310.762 354.5,310.5C 354.5,311.5 354.5,312.5 354.5,313.5C 358.5,314.167 358.5,314.833 354.5,315.5C 354.719,316.675 354.386,317.675 353.5,318.5C 352.513,315.232 352.18,311.898 352.5,308.5 Z"/></g>
<g><path style="opacity:1" fill="#9ebce7" d="M 467.5,308.5 C 472.493,308.997 473.493,311.164 470.5,315C 469.365,315.749 468.365,315.583 467.5,314.5C 469.289,313.377 469.622,312.044 468.5,310.5C 467.833,311.167 467.167,311.833 466.5,312.5C 466.167,312.167 465.833,311.833 465.5,311.5C 466.193,310.482 466.859,309.482 467.5,308.5 Z"/></g>
<g><path style="opacity:1" fill="#6da0e0" d="M 360.5,311.5 C 366.704,311.314 368.037,313.814 364.5,319C 359.632,318.711 358.299,316.211 360.5,311.5 Z"/></g>
<g><path style="opacity:1" fill="#87afe2" d="M 402.5,310.5 C 405.585,310.418 407.252,311.918 407.5,315C 407.116,318.745 405.282,319.911 402,318.5C 401.781,319.938 401.281,321.271 400.5,322.5C 399.511,318.893 399.177,315.226 399.5,311.5C 400.791,311.737 401.791,311.404 402.5,310.5 Z"/></g>
<g><path style="opacity:1" fill="#87abe2" d="M 444.5,317.5 C 442.896,316.713 442.229,315.38 442.5,313.5C 449.842,309.676 451.842,311.51 448.5,319C 446.537,319.844 445.204,319.344 444.5,317.5 Z"/></g>
<g><path style="opacity:1" fill="#88ade2" d="M 462.5,308.5 C 463.777,309.694 464.444,311.36 464.5,313.5C 465.119,318.342 463.119,320.176 458.5,319C 455.228,314.044 456.561,311.544 462.5,311.5C 462.5,310.5 462.5,309.5 462.5,308.5 Z"/></g>
<g><path style="opacity:1" fill="#f0f1f6" d="M 361.5,312.5 C 365.161,312.35 366.161,313.85 364.5,317C 360.707,317.487 359.707,315.987 361.5,312.5 Z"/></g>
<g><path style="opacity:1" fill="#f4f6f9" d="M 402.5,312.5 C 405.084,313.048 406.084,314.715 405.5,317.5C 401.716,317.475 400.716,315.808 402.5,312.5 Z"/></g>
<g><path style="opacity:1" fill="#eef3f8" d="M 444.5,317.5 C 443.756,314.05 445.09,312.384 448.5,312.5C 448.5,314.167 448.5,315.833 448.5,317.5C 447.167,317.5 445.833,317.5 444.5,317.5 Z"/></g>
<g><path style="opacity:1" fill="#f4f5f9" d="M 459.5,312.5 C 462.389,312.999 463.056,314.499 461.5,317C 460.552,317.483 459.552,317.649 458.5,317.5C 458.366,315.708 458.699,314.042 459.5,312.5 Z"/></g>
<g><path style="opacity:1" fill="#678fde" d="M 368.5,311.5 C 369.552,311.351 370.552,311.517 371.5,312C 369.926,313.826 369.093,315.993 369,318.5C 368.503,316.19 368.337,313.857 368.5,311.5 Z"/></g>
<g><path style="opacity:1" fill="#7dace3" d="M 418.5,311.5 C 420.288,311.215 421.955,311.548 423.5,312.5C 422.167,312.833 420.833,313.167 419.5,313.5C 422.522,314.004 423.689,315.671 423,318.5C 421.644,319.38 420.144,319.714 418.5,319.5C 418.351,318.448 418.517,317.448 419,316.5C 420.049,317.517 421.216,317.684 422.5,317C 421.437,315.812 420.103,315.312 418.5,315.5C 418.5,314.167 418.5,312.833 418.5,311.5 Z"/></g>
<g><path style="opacity:1" fill="#89b0e3" d="M 425.5,311.5 C 427.288,311.215 428.955,311.548 430.5,312.5C 429.167,312.833 427.833,313.167 426.5,313.5C 429.522,314.004 430.689,315.671 430,318.5C 428.644,319.38 427.144,319.714 425.5,319.5C 425.351,318.448 425.517,317.448 426,316.5C 428.923,317.621 429.089,317.287 426.5,315.5C 425.571,314.311 425.238,312.978 425.5,311.5 Z"/></g>
<g><path style="opacity:1" fill="#449de3" d="M 452.5,311.5 C 453.552,311.351 454.552,311.517 455.5,312C 453.926,313.826 453.093,315.993 453,318.5C 452.503,316.19 452.337,313.857 452.5,311.5 Z"/></g>
<g><path style="opacity:1" fill="#88abe2" d="M 373.5,311.5 C 375.833,311.5 378.167,311.5 380.5,311.5C 380.82,314.898 380.487,318.232 379.5,321.5C 377.629,322.767 375.796,322.767 374,321.5C 373.333,320.833 373.333,320.167 374,319.5C 375.612,322.079 377.112,322.079 378.5,319.5C 372.794,319.323 371.127,316.656 373.5,311.5 Z"/></g>
<g><path style="opacity:1" fill="#f1f5f8" d="M 375.5,312.5 C 378.084,313.048 379.084,314.715 378.5,317.5C 374.716,317.475 373.716,315.808 375.5,312.5 Z"/></g>
<g><path style="opacity:1" fill="#8eafe2" d="M 409.5,311.5 C 411.833,311.5 414.167,311.5 416.5,311.5C 416.5,314.167 416.5,316.833 416.5,319.5C 409.762,320.438 407.429,317.771 409.5,311.5 Z"/></g>
<g><path style="opacity:1" fill="#f3f5f8" d="M 410.5,312.5 C 414.161,312.35 415.161,313.85 413.5,317C 412.552,317.483 411.552,317.649 410.5,317.5C 410.5,315.833 410.5,314.167 410.5,312.5 Z"/></g>
<g><path style="opacity:1" fill="#95b5e4" d="M 442.5,313.5 C 441.325,314.974 440.325,316.64 439.5,318.5C 438.201,317.91 437.368,316.91 437,315.5C 436.167,316.5 435.333,317.5 434.5,318.5C 432.912,316.887 431.912,314.887 431.5,312.5C 431.833,312.167 432.167,311.833 432.5,311.5C 433.251,312.376 433.751,313.376 434,314.5C 434.589,312.137 436.089,311.137 438.5,311.5C 438.451,316.539 439.118,316.705 440.5,312C 441.816,311.472 442.483,311.972 442.5,313.5 Z"/></g>
<g><path style="opacity:1" fill="#76a9e3" d="M 383.5,311.5 C 389.704,311.314 391.037,313.814 387.5,319C 382.636,318.774 381.303,316.274 383.5,311.5 Z"/></g>
<g><path style="opacity:1" fill="#ececf5" d="M 384.5,312.5 C 388.161,312.35 389.161,313.85 387.5,317C 383.707,317.487 382.707,315.987 384.5,312.5 Z"/></g>
<g><path style="opacity:1" fill="#dddddd" d="M 691.5,293.5 C 808.834,293.333 926.167,293.5 1043.5,294C 1044.33,294.833 1045.17,295.667 1046,296.5C 1046.67,310.5 1046.67,324.5 1046,338.5C 1045.53,339.931 1044.7,341.097 1043.5,342C 926.167,342.667 808.833,342.667 691.5,342C 689.667,341.5 688.5,340.333 688,338.5C 687.333,324.5 687.333,310.5 688,296.5C 689.145,295.364 690.312,294.364 691.5,293.5 Z"/></g>
<g><path style="opacity:1" fill="#fdfdfd" d="M 692.5,294.5 C 809.167,294.333 925.834,294.5 1042.5,295C 1043.33,295.833 1044.17,296.667 1045,297.5C 1045.67,310.833 1045.67,324.167 1045,337.5C 1044.63,338.416 1044.13,339.25 1043.5,340C 926.167,340.667 808.833,340.667 691.5,340C 691,339.5 690.5,339 690,338.5C 689.333,324.5 689.333,310.5 690,296.5C 690.995,295.934 691.828,295.267 692.5,294.5 Z"/></g>
<g><path style="opacity:1" fill="#a6a1a6" d="M 843.5,312.5 C 844.482,315.962 844.815,319.629 844.5,323.5C 837.003,324.196 835.003,321.363 838.5,315C 840.112,314.28 841.612,314.446 843,315.5C 843.483,314.552 843.649,313.552 843.5,312.5 Z"/></g>
<g><path style="opacity:1" fill="#a49da0" d="M 783.5,314.5 C 785.5,314.833 787.5,315.167 789.5,315.5C 789.5,318.167 789.5,320.833 789.5,323.5C 781.399,324.541 779.399,321.541 783.5,314.5 Z"/></g>
<g><path style="opacity:1" fill="#a8a5a8" d="M 801.5,314.5 C 803.484,314.383 805.15,315.05 806.5,316.5C 805.167,316.833 803.833,317.167 802.5,317.5C 805.337,318.509 806.67,320.509 806.5,323.5C 804.396,323.799 802.396,323.466 800.5,322.5C 801.687,322.446 803.02,322.113 804.5,321.5C 803.68,319.889 802.346,319.222 800.5,319.5C 800.366,317.708 800.699,316.042 801.5,314.5 Z"/></g>
<g><path style="opacity:1" fill="#8a93a4" d="M 831.5,315.5 C 835.554,315.21 836.054,315.877 833,317.5C 832.667,319.5 832.333,321.5 832,323.5C 831.503,320.854 831.336,318.187 831.5,315.5 Z"/></g>
<g><path style="opacity:1" fill="#b6b5b9" d="M 808.5,315.5 C 810.067,316.681 810.901,318.347 811,320.5C 811.494,318.866 811.66,317.199 811.5,315.5C 812.833,315.5 814.167,315.5 815.5,315.5C 815.873,321.932 817.039,321.932 819,315.5C 819.789,319.599 818.289,322.266 814.5,323.5C 813.377,317.034 812.71,317.034 812.5,323.5C 811.167,323.5 809.833,323.5 808.5,323.5C 808.5,320.833 808.5,318.167 808.5,315.5 Z"/></g>
<g><path style="opacity:1" fill="#a2a0a5" d="M 793.5,314.5 C 795.484,314.383 797.15,315.05 798.5,316.5C 796.883,316.669 795.216,317.003 793.5,317.5C 795.517,318.219 797.183,319.386 798.5,321C 798.355,321.772 798.022,322.439 797.5,323C 795.833,323.667 794.167,323.667 792.5,323C 791.549,322.282 791.383,321.449 792,320.5C 793.241,322.421 794.741,322.754 796.5,321.5C 795.68,319.889 794.346,319.222 792.5,319.5C 792.366,317.708 792.699,316.042 793.5,314.5 Z"/></g>
<g><path style="opacity:1" fill="#f5f8f7" d="M 838.5,316.5 C 839.833,316.5 841.167,316.5 842.5,316.5C 842.949,318.977 842.283,320.977 840.5,322.5C 838.717,320.977 838.051,318.977 838.5,316.5 Z"/></g>
<g><path style="opacity:1" fill="#eef2f3" d="M 783.5,316.5 C 784.833,316.5 786.167,316.5 787.5,316.5C 787.949,318.977 787.283,320.977 785.5,322.5C 782.531,321.235 781.865,319.235 783.5,316.5 Z"/></g>
<g><path style="opacity:1" fill="#c19f82" d="M 737.5,312.5 C 737.5,316.167 737.5,319.833 737.5,323.5C 736.746,320.977 736.08,318.311 735.5,315.5C 735.942,314.261 736.609,313.261 737.5,312.5 Z"/></g>
<g><path style="opacity:1" fill="#cecdcd" d="M 1014.5,310.5 C 1016.04,310.703 1017.38,311.37 1018.5,312.5C 1020.43,311.48 1022.43,311.313 1024.5,312C 1026.17,313.167 1027.83,314.333 1029.5,315.5C 1029.51,318.496 1029.51,321.496 1029.5,324.5C 1027.67,325.282 1026.17,324.616 1025,322.5C 1020.96,324.153 1017.63,323.153 1015,319.5C 1015.41,316.451 1015.24,313.451 1014.5,310.5 Z"/></g>
<g><path style="opacity:1" fill="#a7a1a5" d="M 823.5,314.5 C 829.651,315.103 830.984,317.936 827.5,323C 822,324.167 819.833,322 821,316.5C 821.995,315.934 822.828,315.267 823.5,314.5 Z"/></g>
<g><path style="opacity:1" fill="#f4f4f2" d="M 822.5,316.5 C 824.167,316.5 825.833,316.5 827.5,316.5C 827.66,318.199 827.494,319.866 827,321.5C 825.667,322.833 824.333,322.833 823,321.5C 822.506,319.866 822.34,318.199 822.5,316.5 Z"/></g>
<g><path style="opacity:1" fill="#a3a4af" d="M 774.5,314.5 C 780.293,315.421 781.626,318.255 778.5,323C 776.866,323.494 775.199,323.66 773.5,323.5C 773.762,324.978 773.429,326.311 772.5,327.5C 771.509,323.555 771.176,319.555 771.5,315.5C 772.791,315.737 773.791,315.404 774.5,314.5 Z"/></g>
<g><path style="opacity:1" fill="#f3f1ed" d="M 773.5,316.5 C 778.159,316.015 779.492,317.848 777.5,322C 776.216,322.684 775.049,322.517 774,321.5C 773.506,319.866 773.34,318.199 773.5,316.5 Z"/></g>
<g><path style="opacity:1" fill="#b0a8aa" d="M 751.5,314.5 C 754.044,314.104 756.211,314.771 758,316.5C 762.739,313.163 765.239,314.496 765.5,320.5C 765.167,321.5 764.833,322.5 764.5,323.5C 763.526,321.257 763.192,318.924 763.5,316.5C 761.856,316.286 760.356,316.62 759,317.5C 757.606,325.22 756.772,324.886 756.5,316.5C 755.178,316.33 754.011,316.663 753,317.5C 752.808,319.577 752.308,321.577 751.5,323.5C 750.259,320.463 750.259,317.463 751.5,314.5 Z"/></g>
<g><path style="opacity:1" fill="#9d99a1" d="M 726.5,315.5 C 733.878,313.874 736.211,316.541 733.5,323.5C 732.526,321.257 732.192,318.924 732.5,316.5C 730.856,316.286 729.356,316.62 728,317.5C 727.667,319.5 727.333,321.5 727,323.5C 726.503,320.854 726.336,318.187 726.5,315.5 Z"/></g>
<g><path style="opacity:1" fill="#afabaf" d="M 718.5,314.5 C 724.643,315.026 725.976,317.86 722.5,323C 718.968,323.807 716.635,322.473 715.5,319C 716.008,317.107 717.008,315.607 718.5,314.5 Z"/></g>
<g><path style="opacity:1" fill="#f6f7f5" d="M 718.5,316.5 C 719.833,316.5 721.167,316.5 722.5,316.5C 722.949,318.977 722.283,320.977 720.5,322.5C 718.717,320.977 718.051,318.977 718.5,316.5 Z"/></g>
<g><path style="opacity:1" fill="#c4c5cc" d="M 737.5,323.5 C 737.5,319.833 737.5,316.167 737.5,312.5C 739.265,311.539 741.265,311.205 743.5,311.5C 743.5,315.5 743.5,319.5 743.5,323.5C 742.5,323.5 741.5,323.5 740.5,323.5C 740.808,321.076 740.474,318.743 739.5,316.5C 738.832,318.969 738.165,321.302 737.5,323.5 Z"/></g>
<g><path style="opacity:1" fill="#a9aaaf" d="M 706.5,312.5 C 708.527,312.338 710.527,312.505 712.5,313C 712.957,313.414 713.291,313.914 713.5,314.5C 711.345,314.838 709.011,314.838 706.5,314.5C 706.338,316.527 706.505,318.527 707,320.5C 709,323.167 711,323.167 713,320.5C 713.348,322.923 712.182,323.923 709.5,323.5C 704.154,321.128 703.154,317.461 706.5,312.5 Z"/></g>
<g><path style="opacity:1" fill="#0e73d3" d="M 235.5,344.5 C 352.835,344.167 470.169,344.5 587.5,345.5C 588.934,346.23 590.1,347.23 591,348.5C 591.667,362.167 591.667,375.833 591,389.5C 589.833,390.667 588.667,391.833 587.5,393C 470.167,393.667 352.833,393.667 235.5,393C 234.299,392.097 233.465,390.931 233,389.5C 232.333,375.833 232.333,362.167 233,348.5C 234.085,347.264 234.918,345.931 235.5,344.5 Z"/></g>
<g><path style="opacity:1" fill="#0271d3" d="M 690.5,361.5 C 807.834,361.333 925.167,361.5 1042.5,362C 1043.93,362.465 1045.1,363.299 1046,364.5C 1046.67,378.5 1046.67,392.5 1046,406.5C 1045.17,407.333 1044.33,408.167 1043.5,409C 925.833,409.667 808.167,409.667 690.5,409C 690,408.5 689.5,408 689,407.5C 688.333,392.833 688.333,378.167 689,363.5C 689.717,362.956 690.217,362.289 690.5,361.5 Z"/></g>
<g><path style="opacity:1" fill="#c2d9ef" d="M 392.5,363.5 C 394.388,365.988 395.055,368.988 394.5,372.5C 395.978,372.238 397.311,372.571 398.5,373.5C 396.604,374.466 394.604,374.799 392.5,374.5C 392.5,370.833 392.5,367.167 392.5,363.5 Z"/></g>
<g><path style="opacity:1" fill="#bfdbf1" d="M 419.5,362.5 C 421.337,362.639 421.67,363.306 420.5,364.5C 419.702,364.043 419.369,363.376 419.5,362.5 Z"/></g>
<g><path style="opacity:1" fill="#c7def2" d="M 423.5,365.5 C 431.23,364.143 433.563,367.143 430.5,374.5C 429.526,372.257 429.192,369.924 429.5,367.5C 428.167,367.5 426.833,367.5 425.5,367.5C 425.808,369.924 425.474,372.257 424.5,374.5C 423.516,371.572 423.183,368.572 423.5,365.5 Z"/></g>
<g><path style="opacity:1" fill="#d9e4f2" d="M 419.5,365.5 C 420.765,366.514 421.431,368.014 421.5,370C 421.167,371.5 420.833,373 420.5,374.5C 419.516,371.572 419.183,368.572 419.5,365.5 Z"/></g>
<g><path style="opacity:1" fill="#bfd9f1" d="M 400.5,365.5 C 403.652,364.959 406.152,365.959 408,368.5C 408.374,367.584 408.874,366.75 409.5,366C 412.146,365.503 414.813,365.336 417.5,365.5C 417.665,369.182 417.499,372.848 417,376.5C 414.334,378.987 411.834,378.987 409.5,376.5C 411.326,376.08 413.326,376.08 415.5,376.5C 415.649,375.448 415.483,374.448 415,373.5C 412.119,375.028 409.786,374.362 408,371.5C 403.6,375.988 400.433,375.321 398.5,369.5C 398.752,367.927 399.418,366.594 400.5,365.5 Z"/></g>
<g><path style="opacity:1" fill="#2a7ed8" d="M 410.5,367.5 C 412.167,367.5 413.833,367.5 415.5,367.5C 416.169,371.676 414.669,373.009 411,371.5C 410.51,370.207 410.343,368.873 410.5,367.5 Z"/></g>
<g><path style="opacity:1" fill="#3687db" d="M 401.5,367.5 C 402.833,367.5 404.167,367.5 405.5,367.5C 405.5,369.167 405.5,370.833 405.5,372.5C 401.065,373.078 399.732,371.411 401.5,367.5 Z"/></g>
<g><path style="opacity:1" fill="#c4dcf3" d="M 842.5,380.5 C 844.977,380.051 846.977,380.717 848.5,382.5C 847.132,383.594 845.965,383.26 845,381.5C 844.308,382.025 843.808,382.692 843.5,383.5C 844.655,384.95 846.155,385.95 848,386.5C 848.934,391.083 847.1,392.583 842.5,391C 842.043,390.586 841.709,390.086 841.5,389.5C 842.995,389.522 844.662,389.189 846.5,388.5C 845.345,387.05 843.845,386.05 842,385.5C 841.36,383.735 841.527,382.068 842.5,380.5 Z"/></g>
<g><path style="opacity:1" fill="#a8ceee" d="M 864.5,382.5 C 871.833,381.167 874.833,384.167 873.5,391.5C 872.5,391.5 871.5,391.5 870.5,391.5C 870.5,389.167 870.5,386.833 870.5,384.5C 869.5,384.5 868.5,384.5 867.5,384.5C 867.5,386.833 867.5,389.167 867.5,391.5C 866.5,391.5 865.5,391.5 864.5,391.5C 864.5,388.5 864.5,385.5 864.5,382.5 Z"/></g>
<g><path style="opacity:1" fill="#75b6ec" d="M 877.5,389.5 C 876.691,387.708 876.191,385.708 876,383.5C 875.503,385.81 875.337,388.143 875.5,390.5C 874.527,388.052 874.194,385.385 874.5,382.5C 875.5,382.5 876.5,382.5 877.5,382.5C 877.5,384.833 877.5,387.167 877.5,389.5 Z"/></g>
<g><path style="opacity:1" fill="#cfe6f5" d="M 875.5,390.5 C 875.337,388.143 875.503,385.81 876,383.5C 876.191,385.708 876.691,387.708 877.5,389.5C 878.5,389.5 879.5,389.5 880.5,389.5C 880.192,387.076 880.526,384.743 881.5,382.5C 882.484,385.428 882.817,388.428 882.5,391.5C 880.05,391.702 877.717,391.369 875.5,390.5 Z"/></g>
<g><path style="opacity:1" fill="#d2dcee" d="M 850.5,382.5 C 851.765,383.514 852.431,385.014 852.5,387C 852.167,388.5 851.833,390 851.5,391.5C 850.516,388.572 850.183,385.572 850.5,382.5 Z"/></g>
<g><path style="opacity:1" fill="#c9e2f5" d="M 855.5,382.5 C 857.833,382.5 860.167,382.5 862.5,382.5C 862.666,386.514 862.499,390.514 862,394.5C 859.163,396.053 856.663,395.72 854.5,393.5C 854.833,393.167 855.167,392.833 855.5,392.5C 857.332,394.957 858.999,394.957 860.5,392.5C 853.485,391.738 851.818,388.405 855.5,382.5 Z"/></g>
<g><path style="opacity:1" fill="#1f7fd9" d="M 856.5,384.5 C 857.833,384.5 859.167,384.5 860.5,384.5C 860.5,386.167 860.5,387.833 860.5,389.5C 856.065,390.078 854.732,388.411 856.5,384.5 Z"/></g>
<g><path style="opacity:1" fill="#c9e0f4" d="M 884.5,382.5 C 886.681,382.914 889.015,383.081 891.5,383C 893.744,385.376 894.077,388.043 892.5,391C 890.527,391.495 888.527,391.662 886.5,391.5C 886.762,392.978 886.429,394.311 885.5,395.5C 884.508,391.217 884.174,386.884 884.5,382.5 Z"/></g>
<g><path style="opacity:1" fill="#1f7fd9" d="M 887.5,384.5 C 888.833,384.5 890.167,384.5 891.5,384.5C 891.5,386.167 891.5,387.833 891.5,389.5C 887.065,390.078 885.732,388.411 887.5,384.5 Z"/></g>
<g><path style="opacity:1" fill="#88879b" d="M 322.5,419.5 C 318.15,420.994 316.317,419.328 317,414.5C 319.244,412.006 321.577,412.006 324,414.5C 324.877,416.674 324.377,418.341 322.5,419.5 Z"/></g>
<g><path style="opacity:1" fill="#97949d" d="M 372.5,412.5 C 379.108,414.398 379.108,416.398 372.5,418.5C 373.376,419.251 374.376,419.751 375.5,420C 372.094,421.24 370.427,420.073 370.5,416.5C 370.803,414.886 371.47,413.552 372.5,412.5 Z"/></g>
<g><path style="opacity:1" fill="#79728a" d="M 384.5,412.5 C 385.93,412.421 387.264,412.754 388.5,413.5C 389.647,415.765 389.814,418.098 389,420.5C 388.505,418.527 388.338,416.527 388.5,414.5C 386.052,414.01 384.385,414.843 383.5,417C 384.093,418.882 385.427,419.882 387.5,420C 384.433,421.164 382.767,420.164 382.5,417C 382.519,415.167 383.185,413.667 384.5,412.5 Z"/></g>
<g><path style="opacity:1" fill="#857a9b" d="M 328.5,412.5 C 329.583,412.539 330.583,412.873 331.5,413.5C 332.647,415.765 332.814,418.098 332,420.5C 331.505,418.527 331.338,416.527 331.5,414.5C 330.167,414.5 328.833,414.5 327.5,414.5C 327.799,416.604 327.466,418.604 326.5,420.5C 325.526,418.257 325.192,415.924 325.5,413.5C 326.791,413.737 327.791,413.404 328.5,412.5 Z"/></g>
<g><path style="opacity:1" fill="#8084a1" d="M 394.5,412.5 C 395.822,412.33 396.989,412.663 398,413.5C 398.667,415.833 398.667,418.167 398,420.5C 397.505,418.527 397.338,416.527 397.5,414.5C 396.167,414.5 394.833,414.5 393.5,414.5C 393.662,416.527 393.495,418.527 393,420.5C 392.133,417.479 392.633,414.812 394.5,412.5 Z"/></g>
<g><path style="opacity:1" fill="#968385" d="M 449.5,412.5 C 450.822,412.33 451.989,412.663 453,413.5C 453.667,415.833 453.667,418.167 453,420.5C 452.505,418.527 452.338,416.527 452.5,414.5C 451.167,414.5 449.833,414.5 448.5,414.5C 448.799,416.604 448.466,418.604 447.5,420.5C 446.526,418.257 446.192,415.924 446.5,413.5C 447.791,413.737 448.791,413.404 449.5,412.5 Z"/></g>
<g><path style="opacity:1" fill="#94b4e4" d="M 491.5,412.5 C 498.203,411.53 500.536,414.197 498.5,420.5C 497.702,418.922 497.202,417.256 497,415.5C 495.989,414.663 494.822,414.33 493.5,414.5C 493.799,416.604 493.466,418.604 492.5,420.5C 491.52,417.914 491.187,415.247 491.5,412.5 Z"/></g>
<g><path style="opacity:1" fill="#d1d2d5" d="M 459.5,419.5 C 457.656,417.721 456.99,415.388 457.5,412.5C 459.366,411.986 461.2,411.32 463,410.5C 464.261,410.759 465.261,411.426 466,412.5C 464.651,414.805 463.818,417.471 463.5,420.5C 462.041,420.567 460.708,420.234 459.5,419.5 Z"/></g>
<g><path style="opacity:1" fill="#83abe3" d="M 500.5,413.5 C 502.308,414.918 502.975,416.918 502.5,419.5C 503.5,419.5 504.5,419.5 505.5,419.5C 505.201,417.396 505.534,415.396 506.5,413.5C 507.474,415.743 507.808,418.076 507.5,420.5C 501.5,421.833 499.167,419.5 500.5,413.5 Z"/></g>
<g><path style="opacity:1" fill="#f4f1ea" d="M 322.5,419.5 C 319.09,419.616 317.756,417.95 318.5,414.5C 319.833,414.5 321.167,414.5 322.5,414.5C 322.5,416.167 322.5,417.833 322.5,419.5 Z"/></g>
<g><path style="opacity:1" fill="#535a99" d="M 337.5,411.5 C 337.959,414.49 338.959,417.323 340.5,420C 339.552,420.483 338.552,420.649 337.5,420.5C 337.5,417.5 337.5,414.5 337.5,411.5 Z"/></g>
<g><path style="opacity:1" fill="#f9f6ee" d="M 359.5,414.5 C 359.634,416.292 359.301,417.958 358.5,419.5C 355.916,418.952 354.916,417.285 355.5,414.5C 356.833,414.5 358.167,414.5 359.5,414.5 Z"/></g>
<g><path style="opacity:1" fill="#c0bfc5" d="M 423.5,412.5 C 425.484,412.383 427.15,413.05 428.5,414.5C 434.466,411.064 436.966,412.731 436,419.5C 433.408,420.982 431.075,420.648 429,418.5C 425.507,421.502 423.007,420.835 421.5,416.5C 421.752,414.927 422.418,413.594 423.5,412.5 Z"/></g>
<g><path style="opacity:1" fill="#46458d" d="M 457.5,412.5 C 456.99,415.388 457.656,417.721 459.5,419.5C 458.791,420.404 457.791,420.737 456.5,420.5C 456.16,417.028 456.493,414.361 457.5,412.5 Z"/></g>
<g><path style="opacity:1" fill="#7fa7e1" d="M 472.5,410.5 C 474.484,410.383 476.15,411.05 477.5,412.5C 472.455,412.452 472.289,413.786 477,416.5C 477.684,417.784 477.517,418.951 476.5,420C 474.741,420.798 473.074,420.631 471.5,419.5C 477.581,419.228 477.747,417.895 472,415.5C 471.36,413.735 471.527,412.068 472.5,410.5 Z"/></g>
<g><path style="opacity:1" fill="#968699" d="M 344.5,410.5 C 345.931,410.881 346.764,411.881 347,413.5C 348.938,412.14 350.604,412.473 352,414.5C 352.808,416.579 352.641,418.579 351.5,420.5C 350.534,418.604 350.201,416.604 350.5,414.5C 349.167,414.5 347.833,414.5 346.5,414.5C 346.799,416.604 346.466,418.604 345.5,420.5C 344.513,417.232 344.18,413.898 344.5,410.5 Z"/></g>
<g><path style="opacity:1" fill="#8390a7" d="M 359.5,413.5 C 359.5,413.833 359.5,414.167 359.5,414.5C 358.167,414.5 356.833,414.5 355.5,414.5C 354.916,417.285 355.916,418.952 358.5,419.5C 355.78,420.842 354.114,419.842 353.5,416.5C 354.246,412.813 356.246,411.813 359.5,413.5 Z"/></g>
<g><path style="opacity:1" fill="#76443b" d="M 359.5,413.5 C 360.629,415.628 360.796,417.961 360,420.5C 359.617,419.944 359.117,419.611 358.5,419.5C 359.301,417.958 359.634,416.292 359.5,414.5C 359.5,414.167 359.5,413.833 359.5,413.5 Z"/></g>
<g><path style="opacity:1" fill="#b0a5ac" d="M 368.5,412.5 C 369.139,413.097 369.472,413.93 369.5,415C 368.622,416.8 367.955,418.633 367.5,420.5C 363.795,419.622 362.295,417.289 363,413.5C 364.252,415.001 365.252,416.668 366,418.5C 366.236,416.155 367.07,414.155 368.5,412.5 Z"/></g>
<g><path style="opacity:1" fill="#837b95" d="M 405.5,412.5 C 407.5,412.833 409.5,413.167 411.5,413.5C 411.5,415.833 411.5,418.167 411.5,420.5C 409.473,420.662 407.473,420.495 405.5,420C 406.793,419.51 408.127,419.343 409.5,419.5C 409.5,417.833 409.5,416.167 409.5,414.5C 408.167,414.5 406.833,414.5 405.5,414.5C 404.524,418.946 404.524,418.279 405.5,412.5 Z"/></g>
<g><path style="opacity:1" fill="#838a9e" d="M 414.5,412.5 C 416.484,412.383 418.15,413.05 419.5,414.5C 417.997,415.052 416.331,415.052 414.5,414.5C 413.79,417.86 415.124,419.693 418.5,420C 416.888,420.72 415.388,420.554 414,419.5C 413.297,417.071 413.463,414.738 414.5,412.5 Z"/></g>
<g><path style="opacity:1" fill="#7193db" d="M 487.5,419.5 C 483,421.163 481.5,419.497 483,414.5C 484.523,412.38 486.356,412.047 488.5,413.5C 489.833,416.833 489.833,420.167 488.5,423.5C 486.055,424.965 484.055,424.465 482.5,422C 484.425,422.135 486.425,422.302 488.5,422.5C 488.737,421.209 488.404,420.209 487.5,419.5 Z"/></g>
<g><path style="opacity:1" fill="#eef5f8" d="M 487.5,419.5 C 483.839,419.65 482.839,418.15 484.5,415C 488.293,414.513 489.293,416.013 487.5,419.5 Z"/></g>
<g><path style="opacity:1" fill="#8f899f" d="M 307.5,410.5 C 315.492,410.118 317.492,413.284 313.5,420C 311.527,420.495 309.527,420.662 307.5,420.5C 307.5,417.167 307.5,413.833 307.5,410.5 Z"/></g>
<g><path style="opacity:1" fill="#fcf7f2" d="M 309.5,412.5 C 313.473,413.075 314.473,415.242 312.5,419C 311.552,419.483 310.552,419.649 309.5,419.5C 309.5,417.167 309.5,414.833 309.5,412.5 Z"/></g>
<g><path style="opacity:1" fill="#807d8f" d="M 438.5,413.5 C 440.308,414.918 440.975,416.918 440.5,419.5C 441.5,419.5 442.5,419.5 443.5,419.5C 443.338,417.473 443.505,415.473 444,413.5C 444.497,415.81 444.663,418.143 444.5,420.5C 439.094,421.265 437.094,418.931 438.5,413.5 Z"/></g>
<g><path style="opacity:1" fill="#5b94dc" d="M 511.5,419.5 C 510.71,420.609 510.21,421.942 510,423.5C 509.502,420.183 509.335,416.85 509.5,413.5C 515.229,411.462 517.396,413.462 516,419.5C 514.384,420.801 512.884,420.801 511.5,419.5 Z"/></g>
<g><path style="opacity:1" fill="#eff6f8" d="M 511.5,419.5 C 509.707,416.013 510.707,414.513 514.5,415C 516.161,418.15 515.161,419.65 511.5,419.5 Z"/></g>
<g><path style="opacity:1" fill="#556494" d="M 764.5,430.5 C 762.668,429.86 762.335,428.86 763.5,427.5C 764.386,428.325 764.719,429.325 764.5,430.5 Z"/></g>
<g><path style="opacity:1" fill="#968f96" d="M 841.5,429.5 C 844.278,429.022 846.278,430.022 847.5,432.5C 847.167,432.833 846.833,433.167 846.5,433.5C 843.535,429.39 842.201,430.057 842.5,435.5C 847.1,435.345 847.433,436.012 843.5,437.5C 839.08,435.82 838.413,433.154 841.5,429.5 Z"/></g>
<g><path style="opacity:1" fill="#86a5df" d="M 946.5,435.5 C 946.664,429.512 949.164,428.179 954,431.5C 954.147,437.597 951.647,438.93 946.5,435.5 Z"/></g>
<g><path style="opacity:1" fill="#adb2bc" d="M 900.5,429.5 C 907.687,429.455 909.02,431.955 904.5,437C 899.632,436.711 898.299,434.211 900.5,429.5 Z"/></g>
<g><path style="opacity:1" fill="#b2b6e4" d="M 964.5,429.5 C 965.748,430.334 966.415,431.667 966.5,433.5C 966.167,434.833 965.833,436.167 965.5,437.5C 964.52,434.914 964.187,432.247 964.5,429.5 Z"/></g>
<g><path style="opacity:1" fill="#857592" d="M 814.5,427.5 C 816.575,428.62 818.741,429.62 821,430.5C 821.667,432.5 821.667,434.5 821,436.5C 819.393,428.542 817.56,428.542 815.5,436.5C 814.516,433.572 814.183,430.572 814.5,427.5 Z"/></g>
<g><path style="opacity:1" fill="#d8d7dc" d="M 824.5,431.5 C 826.167,431.5 827.833,431.5 829.5,431.5C 829.5,432.833 829.5,434.167 829.5,435.5C 827.833,435.5 826.167,435.5 824.5,435.5C 823.167,434.167 823.167,432.833 824.5,431.5 Z"/></g>
<g><path style="opacity:1" fill="#cccad0" d="M 925.5,427.5 C 926.735,427.721 927.735,428.388 928.5,429.5C 931.392,426.728 934.059,426.894 936.5,430C 936.07,431.434 935.236,432.601 934,433.5C 933.51,434.793 933.343,436.127 933.5,437.5C 930.881,437.768 928.381,437.435 926,436.5C 925.502,433.518 925.335,430.518 925.5,427.5 Z"/></g>
<g><path style="opacity:1" fill="#f3f6fa" d="M 949.5,430.5 C 952.084,431.048 953.084,432.715 952.5,435.5C 951.167,435.5 949.833,435.5 948.5,435.5C 948.366,433.708 948.699,432.042 949.5,430.5 Z"/></g>
<g><path style="opacity:1" fill="#9d9294" d="M 771.5,429.5 C 772.873,429.343 774.207,429.51 775.5,430C 774.072,431.916 773.072,434.083 772.5,436.5C 771.526,434.257 771.192,431.924 771.5,429.5 Z"/></g>
<g><path style="opacity:1" fill="#939cb3" d="M 853.5,429.5 C 855.541,429.854 857.374,429.854 859,429.5C 859.814,431.902 859.647,434.235 858.5,436.5C 852.828,437.467 851.161,435.134 853.5,429.5 Z"/></g>
<g><path style="opacity:1" fill="#faf3e9" d="M 854.5,431.5 C 855.833,431.5 857.167,431.5 858.5,431.5C 858.5,432.833 858.5,434.167 858.5,435.5C 857.167,435.5 855.833,435.5 854.5,435.5C 854.5,434.167 854.5,432.833 854.5,431.5 Z"/></g>
<g><path style="opacity:1" fill="#8182a0" d="M 862.5,429.5 C 868.067,428.753 869.9,431.087 868,436.5C 867.964,434.059 867.131,432.059 865.5,430.5C 864.914,430.709 864.414,431.043 864,431.5C 863.667,433.5 863.333,435.5 863,437.5C 862.503,434.854 862.336,432.187 862.5,429.5 Z"/></g>
<g><path style="opacity:1" fill="#7d6885" d="M 917.5,429.5 C 923.067,428.753 924.9,431.087 923,436.5C 922.964,434.059 922.131,432.059 920.5,430.5C 919.914,430.709 919.414,431.043 919,431.5C 918.667,433.5 918.333,435.5 918,437.5C 917.503,434.854 917.336,432.187 917.5,429.5 Z"/></g>
<g><path style="opacity:1" fill="#9ab0e5" d="M 967.5,429.5 C 974.203,428.53 976.536,431.197 974.5,437.5C 973.534,435.604 973.201,433.604 973.5,431.5C 972.5,431.5 971.5,431.5 970.5,431.5C 970.5,433.5 970.5,435.5 970.5,437.5C 969.5,437.5 968.5,437.5 967.5,437.5C 967.5,434.833 967.5,432.167 967.5,429.5 Z"/></g>
<g><path style="opacity:1" fill="#8d91a2" d="M 764.5,430.5 C 766.428,432.601 767.095,434.934 766.5,437.5C 764.821,435.896 762.821,435.229 760.5,435.5C 760.72,430.744 761.72,430.078 763.5,433.5C 764.386,432.675 764.719,431.675 764.5,430.5 Z"/></g>
<g><path style="opacity:1" fill="#9a98a7" d="M 803.5,429.5 C 804.712,430.23 805.712,431.23 806.5,432.5C 807.287,431.758 807.953,430.925 808.5,430C 809.332,429.312 809.998,429.479 810.5,430.5C 808.726,433.715 807.226,437.048 806,440.5C 805.148,436.811 804.315,433.144 803.5,429.5 Z"/></g>
<g><path style="opacity:1" fill="#8a8fa8" d="M 837.5,429.5 C 838.794,432.019 838.294,434.352 836,436.5C 834.16,434.835 833.493,432.835 834,430.5C 835.722,435.595 836.889,435.262 837.5,429.5 Z"/></g>
<g><path style="opacity:1" fill="#9f9fa6" d="M 777.5,429.5 C 782.75,429.236 784.416,431.569 782.5,436.5C 776.805,437.446 775.138,435.112 777.5,429.5 Z"/></g>
<g><path style="opacity:1" fill="#8a8b9a" d="M 789.5,430.5 C 790.496,430.586 791.329,430.252 792,429.5C 792.814,431.902 792.647,434.235 791.5,436.5C 785.916,438.339 784.083,436.339 786,430.5C 787.292,429.209 788.458,429.209 789.5,430.5 Z"/></g>
<g><path style="opacity:1" fill="#ecf2f3" d="M 789.5,430.5 C 790.301,432.042 790.634,433.708 790.5,435.5C 789.167,435.5 787.833,435.5 786.5,435.5C 785.916,432.715 786.916,431.048 789.5,430.5 Z"/></g>
<g><path style="opacity:1" fill="#8c8e9d" d="M 892.5,429.5 C 894.429,429.231 896.095,429.731 897.5,431C 893.619,429.705 891.952,431.205 892.5,435.5C 894.446,435.193 896.113,435.193 897.5,435.5C 896.034,437.657 894.2,437.99 892,436.5C 891.297,434.071 891.463,431.738 892.5,429.5 Z"/></g>
<g><path style="opacity:1" fill="#74b0e7" d="M 946.5,435.5 C 945.448,437.256 943.781,437.923 941.5,437.5C 941.335,434.15 941.502,430.817 942,427.5C 942.497,430.146 942.664,432.813 942.5,435.5C 943.833,435.5 945.167,435.5 946.5,435.5 Z"/></g>
<g><path style="opacity:1" fill="#878089" d="M 800.5,427.5 C 801.803,430.355 801.803,433.355 800.5,436.5C 798.657,437.939 796.99,437.772 795.5,436C 797.134,435.506 798.801,435.34 800.5,435.5C 799.629,432.728 799.629,430.062 800.5,427.5 Z"/></g>
<g><path style="opacity:1" fill="#8f878e" d="M 824.5,435.5 C 826.167,435.5 827.833,435.5 829.5,435.5C 829.5,434.167 829.5,432.833 829.5,431.5C 827.833,431.5 826.167,431.5 824.5,431.5C 825.918,429.692 827.918,429.025 830.5,429.5C 830.808,431.924 830.474,434.257 829.5,436.5C 827.38,438.009 825.713,437.676 824.5,435.5 Z"/></g>
<g><path style="opacity:1" fill="#908892" d="M 875.5,429.5 C 879.243,429.459 879.41,430.126 876,431.5C 875.51,432.793 875.343,434.127 875.5,435.5C 876.833,435.5 878.167,435.5 879.5,435.5C 879.34,433.801 879.506,432.134 880,430.5C 881.107,433.871 880.107,436.204 877,437.5C 873.005,435.518 872.505,432.851 875.5,429.5 Z"/></g>
<g><path style="opacity:1" fill="#938e9d" d="M 883.5,429.5 C 885.977,429.051 887.977,429.717 889.5,431.5C 889.333,431.833 889.167,432.167 889,432.5C 885.538,429.756 884.038,430.756 884.5,435.5C 886.446,435.193 888.113,435.193 889.5,435.5C 886.257,438.438 883.924,437.771 882.5,433.5C 882.846,432.151 883.179,430.817 883.5,429.5 Z"/></g>
<g><path style="opacity:1" fill="#917c93" d="M 913.5,429.5 C 914.797,431.693 914.797,434.027 913.5,436.5C 912.109,437.645 910.776,437.645 909.5,436.5C 910.689,435.571 912.022,435.238 913.5,435.5C 913.5,433.5 913.5,431.5 913.5,429.5 Z"/></g>
<g><path style="opacity:1" fill="#82afe3" d="M 957.5,429.5 C 959.5,429.5 961.5,429.5 963.5,429.5C 963.665,432.85 963.498,436.183 963,439.5C 960.861,440.769 958.695,440.769 956.5,439.5C 958.256,439.64 959.922,439.14 961.5,438C 955.444,437.232 954.111,434.398 957.5,429.5 Z"/></g>
<g><path style="opacity:1" fill="#f6f5f9" d="M 957.5,431.5 C 958.833,431.5 960.167,431.5 961.5,431.5C 961.5,432.833 961.5,434.167 961.5,435.5C 960.167,435.5 958.833,435.5 957.5,435.5C 957.5,434.167 957.5,432.833 957.5,431.5 Z"/></g>
<g><path style="opacity:1" fill="#b3aeb1" d="M 405.5,457.5 C 414.871,457.026 416.871,460.526 411.5,468C 409.272,468.82 407.272,468.487 405.5,467C 407.764,466.764 409.931,466.264 412,465.5C 413.424,460.338 411.59,458.171 406.5,459C 405.736,461.069 405.236,463.236 405,465.5C 402.992,462.705 403.158,460.038 405.5,457.5 Z"/></g>
<g><path style="opacity:1" fill="#a7a5ad" d="M 861.5,474.5 C 869.299,474.096 871.633,477.263 868.5,484C 861.8,486.964 858.633,484.798 859,477.5C 860.045,476.627 860.878,475.627 861.5,474.5 Z"/></g>
<g><path style="opacity:1" fill="#f2f4f2" d="M 862.5,475.5 C 867.494,475.329 869.328,477.662 868,482.5C 863.849,485.726 861.349,484.726 860.5,479.5C 860.752,477.927 861.418,476.594 862.5,475.5 Z"/></g>
<g><path style="opacity:1" fill="#b3adb0" d="M 871.5,476.5 C 872.975,477.262 874.309,477.595 875.5,477.5C 874.078,479.965 873.078,482.631 872.5,485.5C 871.516,482.572 871.183,479.572 871.5,476.5 Z"/></g>
<g><path style="opacity:1" fill="#4367b2" d="M 235.5,498.5 C 352.834,498.333 470.167,498.5 587.5,499C 588.931,499.465 590.097,500.299 591,501.5C 591.667,515.167 591.667,528.833 591,542.5C 589.833,543.667 588.667,544.833 587.5,546C 470.167,546.667 352.833,546.667 235.5,546C 234.299,545.097 233.465,543.931 233,542.5C 232.333,528.833 232.333,515.167 233,501.5C 234.045,500.627 234.878,499.627 235.5,498.5 Z"/></g>
<g><path style="opacity:1" fill="#f6f8fb" d="M 256.5,508.5 C 269.051,508.215 274.885,514.215 274,526.5C 269.782,534.351 263.282,537.184 254.5,535C 247.636,529.914 245.802,523.414 249,515.5C 250.742,512.254 253.242,509.921 256.5,508.5 Z"/></g>
<g><path style="opacity:1" fill="#4367b2" d="M 691.5,514.5 C 808.5,514.333 925.5,514.5 1042.5,515C 1043.93,515.465 1045.1,516.299 1046,517.5C 1046.67,531.5 1046.67,545.5 1046,559.5C 1045.17,560.333 1044.33,561.167 1043.5,562C 925.833,562.667 808.167,562.667 690.5,562C 690,561.5 689.5,561 689,560.5C 688.333,545.833 688.333,531.167 689,516.5C 689.995,515.934 690.828,515.267 691.5,514.5 Z"/></g>
<g><path style="opacity:1" fill="#ccd3e2" d="M 334.5,516.5 C 336.388,518.988 337.055,521.988 336.5,525.5C 337.675,525.281 338.675,525.614 339.5,526.5C 337.955,527.452 336.288,527.785 334.5,527.5C 334.5,523.833 334.5,520.167 334.5,516.5 Z"/></g>
<g><path style="opacity:1" fill="#cfd4e3" d="M 361.5,515.5 C 363.337,515.639 363.67,516.306 362.5,517.5C 361.702,517.043 361.369,516.376 361.5,515.5 Z"/></g>
<g><path style="opacity:1" fill="#c9d0e6" d="M 401.5,515.5 C 403.048,515.821 403.715,516.821 403.5,518.5C 409.826,518.174 412.159,521.174 410.5,527.5C 409.5,527.5 408.5,527.5 407.5,527.5C 407.5,525.167 407.5,522.833 407.5,520.5C 406.167,520.5 404.833,520.5 403.5,520.5C 403.808,522.924 403.474,525.257 402.5,527.5C 401.509,523.555 401.176,519.555 401.5,515.5 Z"/></g>
<g><path style="opacity:1" fill="#d5dbe9" d="M 424.5,518.5 C 427.011,518.838 429.345,518.838 431.5,518.5C 432.484,521.428 432.817,524.428 432.5,527.5C 424.46,529.048 421.793,526.048 424.5,518.5 Z"/></g>
<g><path style="opacity:1" fill="#ced4e5" d="M 452.5,515.5 C 453.5,515.5 454.5,515.5 455.5,515.5C 455.5,516.5 455.5,517.5 455.5,518.5C 462.486,518.331 464.153,521.164 460.5,527C 457.854,527.497 455.187,527.664 452.5,527.5C 452.5,523.5 452.5,519.5 452.5,515.5 Z"/></g>
<g><path style="opacity:1" fill="#ccd9eb" d="M 352.5,518.5 C 354.833,518.5 357.167,518.5 359.5,518.5C 359.666,522.514 359.499,526.514 359,530.5C 356.163,532.053 353.663,531.72 351.5,529.5C 353.424,529.433 355.424,529.1 357.5,528.5C 350.484,527.663 348.818,524.33 352.5,518.5 Z"/></g>
<g><path style="opacity:1" fill="#d8dbe5" d="M 361.5,518.5 C 362.765,519.514 363.431,521.014 363.5,523C 363.167,524.5 362.833,526 362.5,527.5C 361.516,524.572 361.183,521.572 361.5,518.5 Z"/></g>
<g><path style="opacity:1" fill="#c6d0e2" d="M 365.5,518.5 C 372.833,517.167 375.833,520.167 374.5,527.5C 373.5,527.5 372.5,527.5 371.5,527.5C 371.5,525.167 371.5,522.833 371.5,520.5C 370.167,520.5 368.833,520.5 367.5,520.5C 367.808,522.924 367.474,525.257 366.5,527.5C 365.516,524.572 365.183,521.572 365.5,518.5 Z"/></g>
<g><path style="opacity:1" fill="#cdd7e9" d="M 435.5,518.5 C 437.977,518.051 439.977,518.717 441.5,520.5C 439.78,520.746 437.78,520.746 435.5,520.5C 435.286,522.144 435.62,523.644 436.5,525C 438.313,524.954 439.979,525.12 441.5,525.5C 437.041,528.828 434.374,527.661 433.5,522C 433.862,520.566 434.528,519.399 435.5,518.5 Z"/></g>
<g><path style="opacity:1" fill="#1c76d4" d="M 262.5,517.5 C 261.287,518.952 261.62,520.286 263.5,521.5C 262.119,523.635 261.119,525.968 260.5,528.5C 260.036,526.025 259.036,524.025 257.5,522.5C 258.582,520.661 259.415,518.661 260,516.5C 261.494,515.253 262.994,515.253 264.5,516.5C 264.043,517.298 263.376,517.631 262.5,517.5 Z"/></g>
<g><path style="opacity:1" fill="#cad4e6" d="M 342.5,518.5 C 349.486,518.331 351.153,521.164 347.5,527C 340.99,526.993 339.323,524.159 342.5,518.5 Z"/></g>
<g><path style="opacity:1" fill="#4e70ba" d="M 343.5,520.5 C 344.833,520.5 346.167,520.5 347.5,520.5C 347.5,522.167 347.5,523.833 347.5,525.5C 346.167,525.5 344.833,525.5 343.5,525.5C 343.5,523.833 343.5,522.167 343.5,520.5 Z"/></g>
<g><path style="opacity:1" fill="#5273b9" d="M 353.5,520.5 C 354.833,520.5 356.167,520.5 357.5,520.5C 357.5,522.167 357.5,523.833 357.5,525.5C 353.065,526.078 351.732,524.411 353.5,520.5 Z"/></g>
<g><path style="opacity:1" fill="#d4deea" d="M 396.5,516.5 C 397.931,517.082 399.264,517.915 400.5,519C 397.895,521.411 397.895,523.911 400.5,526.5C 399.311,527.429 397.978,527.762 396.5,527.5C 396.086,523.718 396.086,520.051 396.5,516.5 Z"/></g>
<g><path style="opacity:1" fill="#5171ba" d="M 425.5,520.5 C 429.676,519.831 431.009,521.331 429.5,525C 428.207,525.49 426.873,525.657 425.5,525.5C 425.5,523.833 425.5,522.167 425.5,520.5 Z"/></g>
<g><path style="opacity:1" fill="#5272bb" d="M 455.5,520.5 C 459.676,519.831 461.009,521.331 459.5,525C 458.207,525.49 456.873,525.657 455.5,525.5C 455.5,523.833 455.5,522.167 455.5,520.5 Z"/></g>
<g><path style="opacity:1" fill="#c5cfe4" d="M 415.5,515.5 C 417.924,515.192 420.257,515.526 422.5,516.5C 420.955,517.452 419.288,517.785 417.5,517.5C 417.5,518.5 417.5,519.5 417.5,520.5C 422.833,521.167 422.833,521.833 417.5,522.5C 417.785,524.288 417.452,525.955 416.5,527.5C 415.509,523.555 415.176,519.555 415.5,515.5 Z"/></g>
<g><path style="opacity:1" fill="#d4dceb" d="M 444.5,518.5 C 448.851,517.533 451.185,519.2 451.5,523.5C 449.396,523.201 447.396,523.534 445.5,524.5C 447.473,525.331 449.473,525.498 451.5,525C 447.296,528.688 444.296,527.855 442.5,522.5C 442.752,520.927 443.418,519.594 444.5,518.5 Z"/></g>
<g><path style="opacity:1" fill="#6484cb" d="M 445.5,520.5 C 446.978,520.238 448.311,520.571 449.5,521.5C 448.833,521.833 448.167,522.167 447.5,522.5C 446.287,522.253 445.62,521.586 445.5,520.5 Z"/></g>
<g><path style="opacity:1" fill="#e0e4ea" d="M 483.5,515.5 C 485.164,516.949 485.998,518.949 486,521.5C 486.612,518.968 488.112,518.135 490.5,519C 486.5,521.667 486.5,524.333 490.5,527C 488.406,527.445 486.906,526.612 486,524.5C 485.751,525.624 485.251,526.624 484.5,527.5C 483.509,523.555 483.176,519.555 483.5,515.5 Z"/></g>
<g><path style="opacity:1" fill="#99c0eb" d="M 262.5,517.5 C 263.108,518.8 263.775,520.133 264.5,521.5C 263.008,523.972 262.342,526.639 262.5,529.5C 261.167,529.5 259.833,529.5 258.5,529.5C 258.702,527.05 258.369,524.717 257.5,522.5C 259.036,524.025 260.036,526.025 260.5,528.5C 261.119,525.968 262.119,523.635 263.5,521.5C 261.62,520.286 261.287,518.952 262.5,517.5 Z"/></g>
<g><path style="opacity:1" fill="#c5d6e7" d="M 378.5,518.5 C 379.5,518.5 380.5,518.5 381.5,518.5C 381.344,524.313 382.011,524.646 383.5,519.5C 384.325,518.614 385.325,518.281 386.5,518.5C 387.167,523.833 387.833,523.833 388.5,518.5C 390.5,518.5 392.5,518.5 394.5,518.5C 394.5,521.5 394.5,524.5 394.5,527.5C 393.5,527.5 392.5,527.5 391.5,527.5C 391.664,524.813 391.497,522.146 391,519.5C 390.311,522.408 389.145,525.075 387.5,527.5C 386.194,526.088 385.36,524.421 385,522.5C 383.812,523.563 383.312,524.897 383.5,526.5C 382.325,526.719 381.325,526.386 380.5,525.5C 379.423,523.271 378.756,520.937 378.5,518.5 Z"/></g>
<g><path style="opacity:1" fill="#c7d0e5" d="M 465.5,518.5 C 468.157,518.162 470.49,518.829 472.5,520.5C 479.401,516.701 482.234,518.701 481,526.5C 477.684,528.069 474.851,527.402 472.5,524.5C 470.912,527.257 468.579,528.09 465.5,527C 462.899,524.17 462.899,521.337 465.5,518.5 Z"/></g>
<g><path style="opacity:1" fill="#4e6fb7" d="M 475.5,520.5 C 476.833,520.5 478.167,520.5 479.5,520.5C 479.5,522.167 479.5,523.833 479.5,525.5C 478.167,525.5 476.833,525.5 475.5,525.5C 475.5,523.833 475.5,522.167 475.5,520.5 Z"/></g>
<g><path style="opacity:1" fill="#5070b7" d="M 465.5,520.5 C 466.833,520.5 468.167,520.5 469.5,520.5C 469.5,522.167 469.5,523.833 469.5,525.5C 468.167,525.5 466.833,525.5 465.5,525.5C 465.5,523.833 465.5,522.167 465.5,520.5 Z"/></g>
<g><path style="opacity:1" fill="#f7f8fb" d="M 709.5,525.5 C 725.923,524.07 731.757,531.07 727,546.5C 718.447,555.054 710.78,554.387 704,544.5C 702.632,541.262 702.299,537.928 703,534.5C 704.611,531.062 706.777,528.062 709.5,525.5 Z"/></g>
<g><path style="opacity:1" fill="#4a88d9" d="M 715.5,531.5 C 717.288,531.215 718.955,531.548 720.5,532.5C 719.675,533.386 718.675,533.719 717.5,533.5C 717.626,535.2 718.293,536.7 719.5,538C 717.915,540.256 717.248,542.756 717.5,545.5C 716.5,545.5 715.5,545.5 714.5,545.5C 714.752,542.756 714.085,540.256 712.5,538C 713.923,535.99 714.923,533.824 715.5,531.5 Z"/></g>
<g><path style="opacity:1" fill="#d4dbea" d="M 938.5,532.5 C 940.164,533.949 940.998,535.949 941,538.5C 946.045,534.715 946.545,535.381 942.5,540.5C 943.313,541.814 944.313,542.981 945.5,544C 943.865,544.54 942.532,544.04 941.5,542.5C 940.833,543.167 940.167,543.833 939.5,544.5C 938.509,540.555 938.176,536.555 938.5,532.5 Z"/></g>
<g><path style="opacity:1" fill="#e5e6ed" d="M 789.5,533.5 C 791.402,536.337 792.069,539.671 791.5,543.5C 792.873,543.343 794.207,543.51 795.5,544C 793.527,544.495 791.527,544.662 789.5,544.5C 789.5,540.833 789.5,537.167 789.5,533.5 Z"/></g>
<g><path style="opacity:1" fill="#cbd0e5" d="M 808.5,535.5 C 810.833,535.5 813.167,535.5 815.5,535.5C 815.824,539.555 815.491,543.555 814.5,547.5C 811.466,549.102 808.799,548.769 806.5,546.5C 806.833,546.167 807.167,545.833 807.5,545.5C 808.85,546.95 810.516,547.617 812.5,547.5C 812.5,546.5 812.5,545.5 812.5,544.5C 806.933,545.247 805.1,542.913 807,537.5C 807.717,536.956 808.217,536.289 808.5,535.5 Z"/></g>
<g><path style="opacity:1" fill="#d3dae8" d="M 816.5,532.5 C 817.794,534.048 818.461,536.048 818.5,538.5C 818.167,540.5 817.833,542.5 817.5,544.5C 816.509,540.555 816.176,536.555 816.5,532.5 Z"/></g>
<g><path style="opacity:1" fill="#ccd6e5" d="M 820.5,535.5 C 827.691,534.183 830.691,537.183 829.5,544.5C 828.5,544.5 827.5,544.5 826.5,544.5C 826.5,542.167 826.5,539.833 826.5,537.5C 825.178,537.33 824.011,537.663 823,538.5C 822.808,540.577 822.308,542.577 821.5,544.5C 820.516,541.572 820.183,538.572 820.5,535.5 Z"/></g>
<g><path style="opacity:1" fill="#d8dfec" d="M 880.5,535.5 C 882.674,535.92 884.674,535.92 886.5,535.5C 887.484,538.428 887.817,541.428 887.5,544.5C 878.557,546.212 876.224,543.212 880.5,535.5 Z"/></g>
<g><path style="opacity:1" fill="#4f6fb7" d="M 808.5,537.5 C 809.833,537.5 811.167,537.5 812.5,537.5C 812.5,539.167 812.5,540.833 812.5,542.5C 811.167,542.5 809.833,542.5 808.5,542.5C 808.5,540.833 808.5,539.167 808.5,537.5 Z"/></g>
<g><path style="opacity:1" fill="#dfe1ea" d="M 851.5,533.5 C 853.078,534.066 854.412,535.066 855.5,536.5C 852.895,539.089 852.895,541.589 855.5,544C 854.207,544.49 852.873,544.657 851.5,544.5C 851.086,540.718 851.086,537.051 851.5,533.5 Z"/></g>
<g><path style="opacity:1" fill="#5a79be" d="M 881.5,537.5 C 885.35,537.701 886.35,539.534 884.5,543C 880.537,543.118 879.537,541.284 881.5,537.5 Z"/></g>
<g><path style="opacity:1" fill="#d9e6ef" d="M 856.5,532.5 C 858.045,533.23 858.878,534.563 859,536.5C 861.267,535.065 863.267,535.398 865,537.5C 865.814,539.902 865.647,542.235 864.5,544.5C 863.692,542.577 863.192,540.577 863,538.5C 861.667,537.167 860.333,537.167 859,538.5C 858.808,540.577 858.308,542.577 857.5,544.5C 856.509,540.555 856.176,536.555 856.5,532.5 Z"/></g>
<g><path style="opacity:1" fill="#d9ddeb" d="M 906.5,537.5 C 906.5,538.5 906.5,539.5 906.5,540.5C 904.396,540.201 902.396,540.534 900.5,541.5C 902.236,544.105 904.069,544.105 906,541.5C 906.464,542.094 906.631,542.761 906.5,543.5C 902.294,545.573 899.627,544.406 898.5,540C 898.667,537.167 900.167,535.667 903,535.5C 904.434,535.862 905.601,536.528 906.5,537.5 Z"/></g>
<g><path style="opacity:1" fill="#5a75bb" d="M 900.5,537.5 C 901.978,537.238 903.311,537.571 904.5,538.5C 903.833,538.833 903.167,539.167 902.5,539.5C 901.287,539.253 900.62,538.586 900.5,537.5 Z"/></g>
<g><path style="opacity:1" fill="#d6e0ec" d="M 909.5,532.5 C 910.404,533.209 910.737,534.209 910.5,535.5C 917.486,535.331 919.153,538.164 915.5,544C 913.19,544.497 910.857,544.663 908.5,544.5C 908.237,540.4 908.57,536.4 909.5,532.5 Z"/></g>
<g><path style="opacity:1" fill="#5a77be" d="M 911.5,537.5 C 915.35,537.701 916.35,539.534 914.5,543C 910.537,543.118 909.537,541.284 911.5,537.5 Z"/></g>
<g><path style="opacity:1" fill="#d7dbe7" d="M 798.5,535.5 C 805.486,535.331 807.153,538.164 803.5,544C 796.237,544.821 794.571,541.988 798.5,535.5 Z"/></g>
<g><path style="opacity:1" fill="#5778bf" d="M 798.5,537.5 C 804.175,537.86 804.842,539.86 800.5,543.5C 798.717,541.977 798.051,539.977 798.5,537.5 Z"/></g>
<g><path style="opacity:1" fill="#b7cde3" d="M 834.5,535.5 C 835.999,536.678 836.999,538.345 837.5,540.5C 838.684,538.954 839.684,537.287 840.5,535.5C 842.069,536.714 842.902,538.381 843,540.5C 843.003,536.118 845.169,534.451 849.5,535.5C 849.5,538.5 849.5,541.5 849.5,544.5C 848.5,544.5 847.5,544.5 846.5,544.5C 846.454,535.286 845.787,535.286 844.5,544.5C 843.5,544.5 842.5,544.5 841.5,544.5C 840.833,539.167 840.167,539.167 839.5,544.5C 838.325,544.719 837.325,544.386 836.5,543.5C 835.215,540.979 834.548,538.313 834.5,535.5 Z"/></g>
<g><path style="opacity:1" fill="#e5e8eb" d="M 871.5,533.5 C 873.527,533.338 875.527,533.505 877.5,534C 874.099,533.734 872.433,535.234 872.5,538.5C 877.833,538.833 877.833,539.167 872.5,539.5C 872.66,541.199 872.494,542.866 872,544.5C 871.501,540.848 871.335,537.182 871.5,533.5 Z"/></g>
<g><path style="opacity:1" fill="#779dcf" d="M 909.5,532.5 C 908.57,536.4 908.237,540.4 908.5,544.5C 907.833,544.167 907.167,543.833 906.5,543.5C 906.631,542.761 906.464,542.094 906,541.5C 904.069,544.105 902.236,544.105 900.5,541.5C 902.396,540.534 904.396,540.201 906.5,540.5C 906.5,539.5 906.5,538.5 906.5,537.5C 906.972,535.469 907.972,533.802 909.5,532.5 Z"/></g>
<g><path style="opacity:1" fill="#d3daea" d="M 930.5,535.5 C 937.486,535.331 939.153,538.164 935.5,544C 928.416,544.475 926.749,541.642 930.5,535.5 Z"/></g>
<g><path style="opacity:1" fill="#5575bb" d="M 931.5,537.5 C 934.91,537.384 936.244,539.05 935.5,542.5C 933.833,542.5 932.167,542.5 930.5,542.5C 930.366,540.708 930.699,539.042 931.5,537.5 Z"/></g>
<g><path style="opacity:1" fill="#d4dae9" d="M 890.5,535.5 C 893.157,535.162 895.49,535.829 897.5,537.5C 896.319,538.309 894.986,538.309 893.5,537.5C 889.534,539.449 889.534,541.449 893.5,543.5C 894.5,542.833 895.5,542.167 896.5,541.5C 897.711,542.274 897.711,543.107 896.5,544C 888.807,545.143 886.807,542.31 890.5,535.5 Z"/></g>
<g><path style="opacity:1" fill="#e1e6ef" d="M 920.5,535.5 C 926.705,535.037 928.705,537.704 926.5,543.5C 918.79,545.123 916.79,542.457 920.5,535.5 Z"/></g>
<g><path style="opacity:1" fill="#5977bc" d="M 921.5,537.5 C 925.35,537.701 926.35,539.534 924.5,543C 920.537,543.118 919.537,541.284 921.5,537.5 Z"/></g>
<g><path style="opacity:1" fill="#e2e2e2" d="M 235.5,565.5 C 352.834,565.333 470.167,565.5 587.5,566C 589.333,566.5 590.5,567.667 591,569.5C 591.667,583.5 591.667,597.5 591,611.5C 590.097,612.701 588.931,613.535 587.5,614C 470.167,614.667 352.833,614.667 235.5,614C 234.667,613.167 233.833,612.333 233,611.5C 232.333,597.5 232.333,583.5 233,569.5C 233.662,568.016 234.496,566.683 235.5,565.5 Z"/></g>
<g><path style="opacity:1" fill="#fdfdfd" d="M 235.5,567.5 C 352.834,567.333 470.167,567.5 587.5,568C 588,568.5 588.5,569 589,569.5C 589.667,583.167 589.667,596.833 589,610.5C 588.167,611.333 587.333,612.167 586.5,613C 469.833,613.667 353.167,613.667 236.5,613C 235.667,612.167 234.833,611.333 234,610.5C 233.333,597.167 233.333,583.833 234,570.5C 234.513,569.473 235.013,568.473 235.5,567.5 Z"/></g>
<g><path style="opacity:1" fill="#ec5745" d="M 252.5,587.5 C 251.391,587.443 250.391,587.11 249.5,586.5C 252.473,580.358 256.973,579.024 263,582.5C 263.617,583.449 263.451,584.282 262.5,585C 260.231,584.626 257.898,584.626 255.5,585C 254.058,585.377 253.058,586.21 252.5,587.5 Z"/></g>
<g><path style="opacity:1" fill="#c3c4c7" d="M 343.5,583.5 C 344.5,583.5 345.5,583.5 346.5,583.5C 346.5,586.833 346.5,590.167 346.5,593.5C 347.552,593.351 348.552,593.517 349.5,594C 347.527,594.495 345.527,594.662 343.5,594.5C 343.5,590.833 343.5,587.167 343.5,583.5 Z"/></g>
<g><path style="opacity:1" fill="#a4a6ab" d="M 427.5,584.5 C 430.167,584.5 432.833,584.5 435.5,584.5C 435.719,585.675 435.386,586.675 434.5,587.5C 429.719,584.439 427.552,585.772 428,591.5C 429.396,593.527 431.062,593.86 433,592.5C 433.456,591.256 432.956,590.423 431.5,590C 436.383,588.965 437.383,590.299 434.5,594C 426.189,595.208 423.856,592.041 427.5,584.5 Z"/></g>
<g><path style="opacity:1" fill="#f8c02e" d="M 249.5,586.5 C 250.391,587.11 251.391,587.443 252.5,587.5C 252.5,589.167 252.5,590.833 252.5,592.5C 251.391,592.557 250.391,592.89 249.5,593.5C 248.167,591.167 248.167,588.833 249.5,586.5 Z"/></g>
<g><path style="opacity:1" fill="#b9babf" d="M 396.5,591.5 C 397.117,591.611 397.617,591.944 398,592.5C 398.495,590.527 398.662,588.527 398.5,586.5C 399.833,586.5 401.167,586.5 402.5,586.5C 402.281,585.325 402.614,584.325 403.5,583.5C 404.489,587.107 404.823,590.774 404.5,594.5C 403.5,594.5 402.5,594.5 401.5,594.5C 401.415,586.652 400.749,586.652 399.5,594.5C 398.5,594.5 397.5,594.5 396.5,594.5C 396.5,593.5 396.5,592.5 396.5,591.5 Z"/></g>
<g><path style="opacity:1" fill="#6095f4" d="M 263.5,596.5 C 262.5,596.167 261.833,595.5 261.5,594.5C 262.043,594.44 262.376,594.107 262.5,593.5C 260.955,592.548 259.288,592.215 257.5,592.5C 257.5,591.167 257.5,589.833 257.5,588.5C 260.833,588.5 264.167,588.5 267.5,588.5C 268.223,592.39 266.89,595.056 263.5,596.5 Z"/></g>
<g><path style="opacity:1" fill="#a0a2a9" d="M 396.5,591.5 C 395.778,591.082 395.278,590.416 395,589.5C 394.261,591.221 393.427,592.887 392.5,594.5C 390.171,592.345 389.338,589.678 390,586.5C 391.117,587.949 391.784,589.616 392,591.5C 393.269,590.095 393.769,588.429 393.5,586.5C 394.5,586.5 395.5,586.5 396.5,586.5C 396.5,588.167 396.5,589.833 396.5,591.5 Z"/></g>
<g><path style="opacity:1" fill="#a5a7ac" d="M 458.5,586.5 C 461.167,586.5 463.833,586.5 466.5,586.5C 466.665,589.85 466.498,593.183 466,596.5C 463.085,599.134 460.252,599.134 457.5,596.5C 457.833,596.167 458.167,595.833 458.5,595.5C 460.641,598.019 462.641,598.019 464.5,595.5C 458.215,595.253 456.215,592.253 458.5,586.5 Z"/></g>
<g><path style="opacity:1" fill="#eff0f1" d="M 459.5,588.5 C 461.167,588.5 462.833,588.5 464.5,588.5C 465.169,592.676 463.669,594.009 460,592.5C 459.51,591.207 459.343,589.873 459.5,588.5 Z"/></g>
<g><path style="opacity:1" fill="#b2b4b8" d="M 374.5,586.5 C 382.494,584.87 385.161,587.87 382.5,595.5C 381.526,593.257 381.192,590.924 381.5,588.5C 380.167,588.5 378.833,588.5 377.5,588.5C 377.5,590.5 377.5,592.5 377.5,594.5C 376.5,594.5 375.5,594.5 374.5,594.5C 374.5,591.833 374.5,589.167 374.5,586.5 Z"/></g>
<g><path style="opacity:1" fill="#babcc0" d="M 468.5,583.5 C 469.5,583.5 470.5,583.5 471.5,583.5C 471.238,584.978 471.571,586.311 472.5,587.5C 477.096,585.329 479.762,586.663 480.5,591.5C 478.396,591.201 476.396,591.534 474.5,592.5C 475.776,593.645 477.109,593.645 478.5,592.5C 479.711,593.274 479.711,594.107 478.5,595C 476.191,595.756 474.191,595.256 472.5,593.5C 471.264,594.246 469.93,594.579 468.5,594.5C 468.5,590.833 468.5,587.167 468.5,583.5 Z"/></g>
<g><path style="opacity:1" fill="#4eb062" d="M 252.5,592.5 C 255.045,595.22 258.045,595.886 261.5,594.5C 261.833,595.5 262.5,596.167 263.5,596.5C 261.571,599.135 258.905,599.968 255.5,599C 252.375,598.375 250.375,596.541 249.5,593.5C 250.391,592.89 251.391,592.557 252.5,592.5 Z"/></g>
<g><path style="opacity:1" fill="#a9abb0" d="M 351.5,586.5 C 358.486,586.331 360.153,589.164 356.5,595C 354.299,595.825 352.466,595.325 351,593.5C 350.297,591.071 350.463,588.738 351.5,586.5 Z"/></g>
<g><path style="opacity:1" fill="#f6f6f6" d="M 352.5,588.5 C 353.833,588.5 355.167,588.5 356.5,588.5C 356.5,590.167 356.5,591.833 356.5,593.5C 353.09,593.616 351.756,591.95 352.5,588.5 Z"/></g>
<g><path style="opacity:1" fill="#a2a4aa" d="M 361.5,586.5 C 364.167,586.5 366.833,586.5 369.5,586.5C 369.665,589.85 369.498,593.183 369,596.5C 366.782,598.619 364.282,598.952 361.5,597.5C 361.667,597.167 361.833,596.833 362,596.5C 364.2,597.99 366.034,597.657 367.5,595.5C 360.8,595.596 358.8,592.596 361.5,586.5 Z"/></g>
<g><path style="opacity:1" fill="#f5f5f6" d="M 362.5,588.5 C 363.833,588.5 365.167,588.5 366.5,588.5C 366.5,590.167 366.5,591.833 366.5,593.5C 365.167,593.5 363.833,593.5 362.5,593.5C 362.5,591.833 362.5,590.167 362.5,588.5 Z"/></g>
<g><path style="opacity:1" fill="#a3a5ab" d="M 439.5,586.5 C 446.004,586.138 447.671,588.638 444.5,594C 437.745,594.756 436.078,592.256 439.5,586.5 Z"/></g>
<g><path style="opacity:1" fill="#f0f0f1" d="M 439.5,588.5 C 441.167,588.5 442.833,588.5 444.5,588.5C 445.169,592.676 443.669,594.009 440,592.5C 439.51,591.207 439.343,589.873 439.5,588.5 Z"/></g>
<g><path style="opacity:1" fill="#a2a4aa" d="M 449.5,586.5 C 455.209,585.867 457.209,588.2 455.5,593.5C 448.036,595.537 446.036,593.204 449.5,586.5 Z"/></g>
<g><path style="opacity:1" fill="#f3f3f4" d="M 449.5,588.5 C 451.167,588.5 452.833,588.5 454.5,588.5C 455.169,592.676 453.669,594.009 450,592.5C 449.51,591.207 449.343,589.873 449.5,588.5 Z"/></g>
<g><path style="opacity:1" fill="#c0c2c5" d="M 411.5,583.5 C 413.048,583.821 413.715,584.821 413.5,586.5C 419.204,586.146 421.037,588.813 419,594.5C 418.505,592.527 418.338,590.527 418.5,588.5C 417.167,588.5 415.833,588.5 414.5,588.5C 414.5,590.833 414.5,593.167 414.5,595.5C 411.881,595.768 409.381,595.435 407,594.5C 406.176,591.118 406.343,587.784 407.5,584.5C 410.692,585.628 411.358,587.628 409.5,590.5C 409.556,591.737 410.056,592.737 411,593.5C 411.498,590.183 411.665,586.85 411.5,583.5 Z"/></g>
<g><path style="opacity:1" fill="#d8d8d8" d="M 690.5,582.5 C 808.167,582.333 925.834,582.5 1043.5,583C 1044.67,583.5 1045.5,584.333 1046,585.5C 1046.67,599.167 1046.67,612.833 1046,626.5C 1045.67,613.167 1045.33,599.833 1045,586.5C 1044.17,585.667 1043.33,584.833 1042.5,584C 925.5,583.333 808.5,583.333 691.5,584C 691,584.5 690.5,585 690,585.5C 689.333,599.5 689.333,613.5 690,627.5C 690.75,628.126 691.584,628.626 692.5,629C 809.167,629.333 925.833,629.667 1042.5,630C 925.167,630.667 807.833,630.667 690.5,630C 689.333,629.5 688.5,628.667 688,627.5C 687.333,613.5 687.333,599.5 688,585.5C 689.045,584.627 689.878,583.627 690.5,582.5 Z"/></g>
<g><path style="opacity:1" fill="#a4a6ac" d="M 808.5,603.5 C 810.963,603.781 813.13,604.781 815,606.5C 817.546,603.814 820.713,602.814 824.5,603.5C 824.854,607.637 824.354,611.637 823,615.5C 820.482,617.028 818.315,616.694 816.5,614.5C 818.22,614.254 820.22,614.254 822.5,614.5C 822.649,613.448 822.483,612.448 822,611.5C 820.612,612.554 819.112,612.72 817.5,612C 815.653,608.876 813.987,608.876 812.5,612C 808.492,613.416 806.159,612.082 805.5,608C 805.557,605.791 806.557,604.291 808.5,603.5 Z"/></g>
<g><path style="opacity:1" fill="#b5b6bb" d="M 923.5,600.5 C 924.5,600.5 925.5,600.5 926.5,600.5C 926.215,602.288 926.548,603.955 927.5,605.5C 931.857,602.251 934.523,603.251 935.5,608.5C 933.396,608.201 931.396,608.534 929.5,609.5C 929.833,610.5 930.5,611.167 931.5,611.5C 935.445,610.573 935.445,610.906 931.5,612.5C 929.617,612.124 928.117,611.124 927,609.5C 926.517,610.448 926.351,611.448 926.5,612.5C 925.5,612.5 924.5,612.5 923.5,612.5C 923.5,608.5 923.5,604.5 923.5,600.5 Z"/></g>
<g><path style="opacity:1" fill="#4eb066" d="M 708.5,608.5 C 708.574,610.411 709.574,611.578 711.5,612C 713.545,612.49 715.545,612.323 717.5,611.5C 717.833,612.5 718.5,613.167 719.5,613.5C 713.464,618.214 708.464,617.214 704.5,610.5C 705.833,609.833 707.167,609.167 708.5,608.5 Z"/></g>
<g><path style="opacity:1" fill="#babcc0" d="M 895.5,603.5 C 898.325,603.081 900.491,604.081 902,606.5C 908.102,601.591 911.102,602.924 911,610.5C 907.801,613.129 904.801,612.796 902,609.5C 898.12,613.817 895.286,613.317 893.5,608C 893.759,606.213 894.425,604.713 895.5,603.5 Z"/></g>
<g><path style="opacity:1" fill="#9fa1a7" d="M 883.5,601.5 C 886.157,601.162 888.49,601.829 890.5,603.5C 888.328,603.676 885.995,603.843 883.5,604C 881.167,609.333 882.833,611.333 888.5,610C 889.552,608.284 888.886,607.284 886.5,607C 888.134,606.506 889.801,606.34 891.5,606.5C 890.877,611.288 888.21,613.121 883.5,612C 879.565,608.504 879.565,605.004 883.5,601.5 Z"/></g>
<g><path style="opacity:1" fill="#a7a9ae" d="M 830.5,603.5 C 837.704,602.573 840.038,605.573 837.5,612.5C 836.526,610.257 836.192,607.924 836.5,605.5C 835.167,605.5 833.833,605.5 832.5,605.5C 832.808,607.924 832.474,610.257 831.5,612.5C 830.516,609.572 830.183,606.572 830.5,603.5 Z"/></g>
<g><path style="opacity:1" fill="#aeb0b6" d="M 844.5,603.5 C 845.859,604.007 846.859,605.007 847.5,606.5C 848.386,605.675 848.719,604.675 848.5,603.5C 849.5,603.5 850.5,603.5 851.5,603.5C 852.007,609.314 853.173,609.647 855,604.5C 855.662,607.678 854.829,610.345 852.5,612.5C 851.573,610.887 850.739,609.221 850,607.5C 849.261,609.221 848.427,610.887 847.5,612.5C 845.506,609.85 844.506,606.85 844.5,603.5 Z"/></g>
<g><path style="opacity:1" fill="#f4f4f5" d="M 817.5,605.5 C 821.676,604.831 823.009,606.331 821.5,610C 820.207,610.49 818.873,610.657 817.5,610.5C 817.5,608.833 817.5,607.167 817.5,605.5 Z"/></g>
<g><path style="opacity:1" fill="#f5f5f6" d="M 808.5,605.5 C 812.161,605.35 813.161,606.85 811.5,610C 807.707,610.487 806.707,608.987 808.5,605.5 Z"/></g>
<g><path style="opacity:1" fill="#538ef3" d="M 719.5,613.5 C 718.5,613.167 717.833,612.5 717.5,611.5C 717.804,610.85 718.137,610.183 718.5,609.5C 716.955,608.548 715.288,608.215 713.5,608.5C 713.5,607.167 713.5,605.833 713.5,604.5C 716.5,604.5 719.5,604.5 722.5,604.5C 722.951,608.104 721.951,611.104 719.5,613.5 Z"/></g>
<g><path style="opacity:1" fill="#a1a3a9" d="M 914.5,603.5 C 916.674,603.92 918.674,603.92 920.5,603.5C 921.659,607.122 921.825,610.789 921,614.5C 918.415,617.128 915.915,617.128 913.5,614.5C 915.22,614.254 917.22,614.254 919.5,614.5C 919.649,613.448 919.483,612.448 919,611.5C 916.224,613.14 914.224,612.473 913,609.5C 912.252,607.16 912.752,605.16 914.5,603.5 Z"/></g>
<g><path style="opacity:1" fill="#f5f5f6" d="M 915.5,605.5 C 918.91,605.384 920.244,607.05 919.5,610.5C 915.065,611.078 913.732,609.411 915.5,605.5 Z"/></g>
<g><path style="opacity:1" fill="#adafb4" d="M 857.5,603.5 C 858.765,604.514 859.431,606.014 859.5,608C 859.167,609.5 858.833,611 858.5,612.5C 857.516,609.572 857.183,606.572 857.5,603.5 Z"/></g>
<g><path style="opacity:1" fill="#adafb4" d="M 826.5,603.5 C 827.765,604.514 828.431,606.014 828.5,608C 828.167,609.5 827.833,611 827.5,612.5C 826.516,609.572 826.183,606.572 826.5,603.5 Z"/></g>
<g><path style="opacity:1" fill="#f8be2a" d="M 704.5,602.5 C 705.71,602.932 706.71,603.599 707.5,604.5C 707.433,605.959 707.766,607.292 708.5,608.5C 707.167,609.167 705.833,609.833 704.5,610.5C 703.167,607.833 703.167,605.167 704.5,602.5 Z"/></g>
<g><path style="opacity:1" fill="#a2a5aa" d="M 799.5,601.5 C 801.402,604.337 802.069,607.671 801.5,611.5C 802.552,611.351 803.552,611.517 804.5,612C 802.866,612.494 801.199,612.66 799.5,612.5C 799.5,608.833 799.5,605.167 799.5,601.5 Z"/></g>
<g><path style="opacity:1" fill="#c2c3c7" d="M 866.5,600.5 C 867.5,600.5 868.5,600.5 869.5,600.5C 869.5,601.5 869.5,602.5 869.5,603.5C 875.318,603.924 876.985,606.924 874.5,612.5C 873.526,610.257 873.192,607.924 873.5,605.5C 872.167,605.5 870.833,605.5 869.5,605.5C 869.5,607.833 869.5,610.167 869.5,612.5C 861.936,613.91 859.436,610.91 862,603.5C 863.299,603.034 864.799,603.034 866.5,603.5C 866.5,602.5 866.5,601.5 866.5,600.5 Z"/></g>
<g><path style="opacity:1" fill="#ee5d4d" d="M 707.5,604.5 C 706.71,603.599 705.71,602.932 704.5,602.5C 707.744,596.291 712.411,594.957 718.5,598.5C 719.711,599.274 719.711,600.107 718.5,601C 713.927,599.556 710.26,600.723 707.5,604.5 Z"/></g>
<g><path style="opacity:1" fill="#86a4f7" d="M 1072.5,656.5 C 1071.88,658.335 1070.54,659.502 1068.5,660C 934.333,660.833 800.333,660.666 666.5,659.5C 799.834,659.667 933.167,659.5 1066.5,659C 1068.64,658.427 1070.64,657.594 1072.5,656.5 Z"/></g>
</svg>
